<?xml version="1.0" standalone="no"?>
<!DOCTYPE svg PUBLIC "-//W3C//DTD SVG 1.1//EN" "http://www.w3.org/Graphics/SVG/1.1/DTD/svg11.dtd" >
<svg xmlns="http://www.w3.org/2000/svg">
<metadata>Generated by IcoMoon</metadata>
<defs>
<font id="icomoon" horiz-adv-x="1024">
<font-face units-per-em="1024" ascent="960" descent="-64" />
<missing-glyph horiz-adv-x="1024" />
<glyph unicode="&#x20;" horiz-adv-x="512" d="" />
<glyph unicode="&#xe900;" d="M373.996 905.363h-212.641c-28.053-0.557-54.77-12.093-74.411-32.132s-30.64-46.98-30.634-75.039v-212.641c0-28.423 11.291-55.682 31.39-75.782 20.099-20.096 47.358-31.39 75.782-31.39h212.641c28.424 0 55.681 11.294 75.782 31.39 20.1 20.1 31.39 47.359 31.39 75.782v212.641c0.004 14.255-2.837 28.367-8.358 41.51-5.517 13.143-13.602 25.053-23.778 35.034-10.18 9.98-22.246 17.83-35.496 23.088s-27.414 7.823-41.666 7.54zM863.497 905.363h-212.642c-28.348-0.113-55.501-11.453-75.507-31.54s-31.241-47.281-31.241-75.631v-212.641c0-28.35 11.234-55.546 31.241-75.633 20.006-20.083 47.159-31.424 75.507-31.539h212.642c28.425 0 55.68 11.294 75.78 31.39 20.1 20.1 31.39 47.359 31.39 75.782v212.641c0 28.423-11.29 55.683-31.39 75.781s-47.356 31.39-75.78 31.39zM373.146 417.139h-212.641c-28.423 0-55.683-11.29-75.782-31.39-20.098-20.096-31.389-47.356-31.389-75.78v-212.642c0-28.425 11.291-55.684 31.389-75.78 20.099-20.1 47.358-31.39 75.782-31.39h212.641c28.423 0 55.684 11.29 75.78 31.39 20.1 20.096 31.39 47.356 31.39 75.78v212.642c-0.222 28.13-11.494 55.044-31.386 74.935-19.891 19.887-46.805 31.164-74.934 31.386l-0.85 0.849z" />
<glyph unicode="&#xe901;" d="M373.996 905.364h-212.641c-28.053-0.557-54.77-12.093-74.411-32.132s-30.64-46.98-30.634-75.040v-212.641c0-28.424 11.291-55.683 31.39-75.779 20.099-20.1 47.358-31.39 75.781-31.39h212.641c28.424 0 55.681 11.29 75.782 31.39 20.1 20.096 31.39 47.356 31.39 75.779v212.641c0.004 14.255-2.837 28.367-8.358 41.51-5.517 13.143-13.602 25.053-23.778 35.034-10.18 9.98-22.246 17.829-35.496 23.088s-27.414 7.823-41.666 7.54zM416.524 587.253c0-11.279-4.481-22.096-12.457-30.072s-18.793-12.456-30.072-12.456h-212.641c-11.279 0-22.097 4.48-30.072 12.456s-12.457 18.793-12.457 30.072v212.641c0 11.279 4.481 22.097 12.457 30.072s18.793 12.456 30.072 12.456h212.641c11.279 0 22.096-4.481 30.072-12.456s12.457-18.793 12.457-30.072v-212.641zM863.497 905.364h-212.642c-28.348-0.113-55.501-11.453-75.507-31.54s-31.241-47.281-31.236-75.632v-212.641c-0.004-28.35 11.23-55.547 31.236-75.63 20.006-20.087 47.159-31.428 75.507-31.539h212.642c28.425 0 55.68 11.29 75.78 31.39 20.1 20.096 31.39 47.356 31.39 75.779v212.641c0 28.424-11.29 55.683-31.39 75.782s-47.356 31.39-75.78 31.39zM906.022 587.253c0-11.279-4.48-22.096-12.454-30.072s-18.795-12.456-30.071-12.456h-212.642c-11.281 0-22.097 4.48-30.071 12.456s-12.459 18.793-12.459 30.072v212.641c0 11.279 4.484 22.097 12.459 30.072s18.79 12.456 30.071 12.456h212.642c11.277 0 22.097-4.481 30.071-12.456s12.454-18.793 12.454-30.072v-212.641zM373.146 417.139h-212.641c-28.423 0-55.683-11.29-75.781-31.39-20.099-20.096-31.39-47.356-31.39-75.78v-212.642c0-28.42 11.291-55.68 31.39-75.78 20.098-20.096 47.358-31.39 75.781-31.39h212.641c28.423 0 55.684 11.294 75.78 31.39 20.1 20.1 31.39 47.36 31.39 75.78v212.642c-0.222 28.13-11.494 55.044-31.386 74.935s-46.805 31.164-74.934 31.386l-0.85 0.849zM415.674 99.029c0-11.277-4.481-22.097-12.456-30.071s-18.793-12.454-30.072-12.454h-212.641c-11.279 0-22.096 4.48-30.072 12.454s-12.456 18.795-12.456 30.071v212.642c0 11.277 4.48 22.097 12.456 30.071s18.793 12.454 30.072 12.454h212.641c11.279 0 22.096-4.48 30.072-12.454s12.456-18.795 12.456-30.071v-212.642zM920.482 204.501c0-8.461-3.358-16.576-9.34-22.558-5.982-5.978-14.097-9.34-22.554-9.34h-98.667v-100.365c0-8.461-3.362-16.576-9.344-22.558s-14.093-9.34-22.554-9.34c-8.457 0-16.572 3.358-22.554 9.34s-9.34 14.097-9.34 22.558v99.516h-100.369c-8.457 0-16.572 3.358-22.554 9.34s-9.34 14.097-9.34 22.554c0 8.461 3.358 16.572 9.34 22.554s14.097 9.344 22.554 9.344h100.369v100.365c0 8.461 3.358 16.572 9.34 22.554s14.097 9.344 22.554 9.344c8.461 0 16.572-3.362 22.554-9.344s9.344-14.093 9.344-22.554v-100.365h100.365c8.461 0 16.572-3.362 22.554-9.344s9.344-14.093 9.344-22.554l-1.702 0.853z" />
<glyph unicode="&#xe902;" d="M700.591 0.849h-376.226c-41.86 0.111-81.974 16.794-111.574 46.391s-46.278 69.713-46.391 111.573v575.805c0.112 41.86 16.791 81.974 46.391 111.574s69.713 46.278 111.574 46.39h376.226c41.86-0.112 81.975-16.791 111.573-46.39 29.602-29.6 46.281-69.713 46.391-111.574v-575.805c-0.111-41.86-16.789-81.975-46.391-111.573-29.598-29.598-69.713-46.281-111.573-46.391z" />
<glyph unicode="&#xe903;" d="M701.013 0h-378.027c-42.060 0.111-82.366 16.87-112.108 46.613-29.742 29.739-46.5 70.046-46.612 112.107v578.56c0.113 42.060 16.871 82.366 46.612 112.108s70.047 46.5 112.108 46.612h378.027c42.061-0.113 82.368-16.871 112.107-46.612 29.743-29.741 46.502-70.047 46.613-112.108v-578.56c-0.111-42.061-16.87-82.368-46.613-112.107-29.739-29.743-70.046-46.502-112.107-46.613zM322.987 832c-25.087-0.112-49.114-10.128-66.853-27.867s-27.755-41.766-27.867-66.853v-578.56c0.112-25.088 10.128-49.114 27.867-66.854 17.739-17.737 41.766-27.755 66.853-27.866h378.027c25.088 0.111 49.114 10.129 66.854 27.866 17.737 17.741 27.755 41.766 27.866 66.854v578.56c-0.111 25.087-10.129 49.114-27.866 66.853-17.741 17.739-41.766 27.755-66.854 27.867h-378.027zM117.333 139.093v617.813c0 8.487-3.372 16.626-9.373 22.627s-14.141 9.373-22.627 9.373c-8.487 0-16.626-3.372-22.627-9.373s-9.373-14.141-9.373-22.627v-617.813c0-8.486 3.372-16.627 9.373-22.626 6.001-6.003 14.141-9.374 22.627-9.374s16.626 3.371 22.627 9.374c6.001 5.999 9.373 14.14 9.373 22.626zM970.667 139.093v617.813c0 8.487-3.371 16.626-9.374 22.627-5.999 6.001-14.14 9.373-22.626 9.373s-16.627-3.372-22.626-9.373c-6.003-6.001-9.374-14.141-9.374-22.627v-617.813c0-8.486 3.371-16.627 9.374-22.626 5.999-6.003 14.14-9.374 22.626-9.374s16.627 3.371 22.626 9.374c6.003 5.999 9.374 14.14 9.374 22.626z" />
<glyph unicode="&#xe904;" d="M841.114 761.963h-45.965c-3.695 38.694-21.777 74.593-50.667 100.596-28.894 26.003-66.492 40.217-105.361 39.829h-253.019c-38.842 0.291-76.387-13.956-105.259-39.941s-46.981-61.827-50.769-100.485h-45.965c-33.552 0-65.731-13.329-89.456-37.054s-37.053-55.903-37.053-89.456v-376.155c0-33.553 13.329-65.732 37.053-89.455 23.725-23.727 55.904-37.056 89.456-37.056h45.965c4.567-38.046 23.014-73.071 51.806-98.359 28.791-25.293 65.903-39.070 104.222-38.69h253.019c38.579 0.034 75.759 14.438 104.294 40.401 28.535 25.958 46.379 61.619 50.048 100.023h45.965c33.553 0 65.728 13.329 89.455 37.052 23.727 23.727 37.056 55.906 37.056 89.459v374.467c-0.439 32.969-13.73 64.465-37.043 87.78-23.317 23.315-54.814 36.606-87.782 37.043z" />
<glyph unicode="&#xe905;" d="M844.608 763.988h-46.421c-3.729 39.078-21.99 75.332-51.17 101.593s-67.149 40.614-106.402 40.224h-255.525c-39.226 0.293-77.144-14.095-106.301-40.336s-47.446-62.44-51.273-101.48h-46.42c-33.885 0-66.382-13.46-90.342-37.421s-37.421-56.457-37.421-90.342v-379.881c0-33.886 13.46-66.381 37.421-90.342 23.96-23.957 56.457-37.419 90.342-37.419h46.42c4.613-38.426 23.243-73.796 52.32-99.337s66.555-39.454 105.254-39.074h255.525c38.959 0.034 76.51 14.583 105.327 40.802s46.835 62.229 50.543 101.013h46.421c33.882 0 66.381 13.461 90.342 37.423 23.957 23.962 37.419 56.457 37.419 90.342v378.175c-0.439 33.296-13.862 65.103-37.41 88.649-23.543 23.546-55.351 36.968-88.649 37.409zM120.622 258.048v379.882c0.1 16.167 6.452 31.669 17.724 43.258s26.592 18.37 42.75 18.919h42.587v-504.233h-42.587c-16.456 0.111-32.207 6.694-43.843 18.334-11.636 11.635-18.223 27.388-18.335 43.84h1.704zM640.614 54.054h-255.525c-24.814 0.115-48.58 10.022-66.127 27.567-17.547 17.549-27.454 41.314-27.566 66.129v598.351c-0.226 12.467 2.028 24.854 6.63 36.442s11.461 22.147 20.178 31.062c8.717 8.915 19.119 16.009 30.601 20.871s23.815 7.392 36.284 7.447h255.525c12.612 0.174 25.131-2.19 36.809-6.95 11.682-4.759 22.285-11.818 31.185-20.756 8.896-8.938 15.91-19.574 20.617-31.276s7.014-24.23 6.784-36.84v-600.485c-0.67-24.738-11.055-48.218-28.911-65.353-17.852-17.139-41.737-26.551-66.483-26.21zM905.084 258.048c-0.115-16.452-6.699-32.205-18.338-43.84-11.635-11.639-27.383-18.223-43.84-18.334h-43.017v504.233h44.719c16.457-0.112 32.205-6.698 43.844-18.335 11.635-11.636 18.223-27.387 18.334-43.843l-1.702-379.882z" />
<glyph unicode="&#xe906;" d="M384 587.947h-210.347c-12.999 0-25.871 2.56-37.881 7.535s-22.922 12.266-32.113 21.457c-18.563 18.564-28.992 43.741-28.992 69.994v120.747c0 26.253 10.429 51.43 28.992 69.994s43.741 28.992 69.994 28.992h210.347c26.253 0 51.43-10.429 69.995-28.992s28.992-43.741 28.992-69.994v-120.747c0-26.253-10.428-51.43-28.992-69.994s-43.742-28.992-69.995-28.992zM378.453-9.387h-199.253c-27.504 0-53.9 10.837-73.467 30.161-19.567 19.328-30.729 45.589-31.066 73.092v324.267c0 27.725 11.013 54.31 30.617 73.916s46.192 30.618 73.916 30.618h199.68c27.724 0 54.31-11.012 73.916-30.618s30.618-46.191 30.618-73.916v-324.267c0-13.726-2.705-27.319-7.957-40.004-5.252-12.681-12.954-24.205-22.66-33.911s-21.231-17.408-33.913-22.66c-12.682-5.252-26.275-7.957-40.003-7.957l-0.427 1.28zM844.8 374.613h-193.707c-27.61 0-54.093 10.97-73.613 30.494-19.524 19.52-30.494 46.003-30.494 73.613v323.84c0 27.611 10.97 54.091 30.494 73.615 19.52 19.524 46.003 30.492 73.613 30.492h194.133c27.61 0 54.093-10.968 73.613-30.492 19.524-19.524 30.494-46.004 30.494-73.615v-325.12c0-27.61-10.97-54.093-30.494-73.613-19.52-19.524-46.003-30.494-73.613-30.494l-0.427 1.28zM850.347-9.387h-204.8c-26.18 0-51.294 10.368-69.845 28.843-18.551 18.47-29.030 43.537-29.141 69.717v122.88c0.111 26.18 10.59 51.247 29.141 69.717 18.551 18.475 43.665 28.843 69.845 28.843h204.8c26.103-0.111 51.11-10.534 69.568-28.992s28.881-43.465 28.992-69.568v-124.16c-0.111-26.031-10.47-50.974-28.838-69.419-18.368-18.449-43.264-28.915-69.295-29.141l-0.427 1.28z" />
<glyph unicode="&#xe907;" d="M384 587.947h-210.347c-12.999 0-25.871 2.56-37.881 7.535s-22.922 12.266-32.113 21.457c-18.563 18.564-28.992 43.741-28.992 69.994v120.747c0 26.253 10.429 51.43 28.992 69.994s43.741 28.992 69.994 28.992h210.347c26.253 0 51.43-10.429 69.995-28.992s28.992-43.741 28.992-69.994v-120.747c0-26.253-10.428-51.43-28.992-69.994s-43.742-28.992-69.995-28.992zM173.227 843.947c-9.279 0-18.178-3.686-24.739-10.247s-10.247-15.46-10.247-24.739v-122.027c0-9.279 3.686-18.178 10.247-24.739s15.46-10.247 24.739-10.247h210.773c4.594 0 9.144 0.905 13.389 2.663s8.102 4.335 11.351 7.584c3.249 3.249 5.826 7.106 7.584 11.351s2.663 8.794 2.663 13.389v120.747c0 4.594-0.905 9.144-2.663 13.389s-4.335 8.102-7.584 11.351c-3.249 3.249-7.106 5.826-11.351 7.584s-8.794 2.663-13.389 2.663l-210.773 1.28zM378.453-9.387h-199.253c-27.504 0-53.9 10.837-73.467 30.161-19.567 19.328-30.729 45.589-31.066 73.092v324.267c0 27.725 11.013 54.31 30.617 73.916s46.192 30.618 73.916 30.618h199.68c27.724 0 54.31-11.012 73.916-30.618s30.618-46.191 30.618-73.916v-324.267c0-13.726-2.705-27.319-7.957-40.004-5.252-12.681-12.954-24.205-22.66-33.911s-21.231-17.408-33.913-22.66c-12.682-5.252-26.275-7.957-40.003-7.957l-0.427 1.28zM178.773 459.947c-10.956 0.013-21.497-4.186-29.44-11.733s-12.679-17.856-13.227-28.8v-324.267c0.548-10.944 5.284-21.252 13.227-28.8s18.484-11.746 29.44-11.733h200.107c10.583 0.516 20.595 4.954 28.087 12.446s11.929 17.506 12.446 28.087v322.987c-0.517 10.581-4.954 20.595-12.446 28.087s-17.504 11.93-28.087 12.446l-200.107 1.28zM844.8 374.613h-193.707c-27.61 0-54.093 10.97-73.613 30.494-19.524 19.52-30.494 46.003-30.494 73.613v323.84c0 27.611 10.97 54.091 30.494 73.615 19.52 19.524 46.003 30.492 73.613 30.492h194.133c27.61 0 54.093-10.968 73.613-30.492 19.524-19.524 30.494-46.004 30.494-73.615v-325.12c0-27.61-10.97-54.093-30.494-73.613-19.52-19.524-46.003-30.494-73.613-30.494l-0.427 1.28zM650.667 843.947c-10.637 0-20.838-4.226-28.361-11.747s-11.746-17.723-11.746-28.36v-325.12c0-10.637 4.224-20.838 11.746-28.361s17.724-11.746 28.361-11.746h194.133c5.265 0 10.483 1.037 15.347 3.055 4.868 2.014 9.289 4.966 13.013 8.691s6.677 8.145 8.691 13.013c2.018 4.864 3.055 10.082 3.055 15.347v323.84c0 5.267-1.037 10.482-3.055 15.348-2.014 4.866-4.966 9.287-8.691 13.012s-8.145 6.679-13.013 8.694c-4.864 2.016-10.082 3.053-15.347 3.053l-194.133 1.28zM850.347-9.387h-204.8c-26.18 0-51.294 10.368-69.845 28.843-18.551 18.47-29.030 43.537-29.141 69.717v122.88c0.111 26.18 10.59 51.247 29.141 69.717 18.551 18.475 43.665 28.843 69.845 28.843h204.8c26.103-0.111 51.11-10.534 69.568-28.992s28.881-43.465 28.992-69.568v-124.16c-0.111-26.031-10.47-50.974-28.838-69.419-18.368-18.449-43.264-28.915-69.295-29.141l-0.427 1.28zM645.547 246.613c-9.207 0-18.039-3.627-24.589-10.095-6.549-6.473-10.287-15.262-10.398-24.465v-124.16c0.111-9.203 3.849-17.997 10.398-24.465s15.381-10.095 24.589-10.095h204.8c9.165 0 17.958 3.639 24.439 10.121s10.121 15.275 10.121 24.439v124.16c0 9.165-3.639 17.958-10.121 24.439s-15.275 10.121-24.439 10.121h-204.8z" />
<glyph unicode="&#xe908;" d="M371.757 479.97h-213.135c-28.118 0.559-54.897 12.122-74.583 32.205-19.687 20.087-30.711 47.090-30.705 75.215v213.135c0.448 28.193 11.962 55.080 32.059 74.857s47.164 30.861 75.361 30.857h213.135c28.193-0.448 55.078-11.962 74.858-32.059 19.776-20.097 30.861-47.164 30.857-75.361v-213.135c-0.448-28.267-12.023-55.218-32.209-75.007-20.19-19.789-47.367-30.822-75.637-30.707zM863.245 479.97h-213.133c-28.343 0.226-55.445 11.639-75.409 31.761-19.959 20.122-31.159 47.316-31.159 75.658v213.135c0.444 28.046 11.84 54.806 31.757 74.56 19.913 19.754 46.763 30.936 74.812 31.155h213.133c28.493 0 55.812-11.317 75.959-31.462 20.143-20.145 31.462-47.468 31.462-75.958v-213.135c-0.448-28.193-11.964-55.082-32.060-74.858s-47.164-30.861-75.362-30.857zM370.905-10.24h-213.135c-27.969 0.777-54.531 12.437-74.036 32.499-19.504 20.058-30.411 46.938-30.4 74.918v213.137c0 28.489 11.317 55.812 31.463 75.955 20.145 20.147 47.468 31.462 75.957 31.462h213.135c14.107-0.222 28.032-3.221 40.98-8.823 12.95-5.606 24.666-13.705 34.484-23.838 9.813-10.133 17.54-22.101 22.729-35.221 5.193-13.12 7.748-27.132 7.522-41.242v-213.133c-0.448-28.267-12.023-55.219-32.209-75.008-20.19-19.789-47.367-30.822-75.637-30.707h-0.852z" />
<glyph unicode="&#xe909;" d="M371.757 479.97h-213.135c-28.118 0.559-54.897 12.122-74.583 32.205-19.687 20.087-30.711 47.090-30.705 75.215v213.135c0.448 28.193 11.962 55.080 32.059 74.857s47.164 30.861 75.361 30.857h213.135c28.193-0.448 55.078-11.962 74.858-32.059 19.776-20.097 30.861-47.164 30.857-75.361v-213.135c-0.448-28.267-12.023-55.218-32.209-75.007-20.19-19.789-47.367-30.822-75.637-30.707zM158.622 842.299c-11.305 0-22.147-4.491-30.141-12.485s-12.486-18.836-12.486-30.142v-213.135c0-11.305 4.491-22.148 12.486-30.142s18.836-12.485 30.141-12.485h213.135c11.305 0 22.147 4.491 30.142 12.485s12.485 18.836 12.485 30.142v213.135c0 11.305-4.491 22.148-12.485 30.142s-18.836 12.485-30.142 12.485h-213.135zM863.245 479.97h-213.133c-28.343 0.226-55.445 11.639-75.409 31.761-19.959 20.122-31.159 47.316-31.159 75.658v213.135c0.444 28.046 11.84 54.806 31.757 74.56 19.913 19.754 46.763 30.936 74.812 31.155h213.133c28.493 0 55.812-11.317 75.959-31.462 20.143-20.145 31.462-47.468 31.462-75.958v-213.135c-0.448-28.193-11.964-55.082-32.060-74.858s-47.164-30.861-75.362-30.857zM650.112 842.299c-11.307 0-22.148-4.491-30.144-12.485-7.991-7.994-12.484-18.836-12.484-30.142v-213.135c0-11.305 4.493-22.148 12.484-30.142 7.996-7.994 18.837-12.485 30.144-12.485h213.133c11.307 0 22.148 4.491 30.144 12.485s12.484 18.836 12.484 30.142v213.135c0 11.305-4.489 22.148-12.484 30.142s-18.837 12.485-30.144 12.485h-213.133zM370.905-10.24h-213.135c-27.969 0.777-54.531 12.437-74.036 32.499-19.504 20.058-30.411 46.938-30.4 74.918v213.137c0 28.489 11.317 55.812 31.463 75.955 20.145 20.147 47.468 31.462 75.957 31.462h213.135c14.107-0.222 28.032-3.221 40.98-8.823 12.95-5.606 24.666-13.705 34.484-23.838 9.813-10.133 17.54-22.101 22.729-35.221 5.193-13.12 7.748-27.132 7.522-41.242v-213.133c-0.448-28.267-12.023-55.219-32.209-75.008-20.19-19.789-47.367-30.822-75.637-30.707h-0.852zM157.769 352.090c-11.305 0-22.147-4.493-30.142-12.484-7.994-7.996-12.485-18.837-12.485-30.144v-213.137c0-11.302 4.491-22.144 12.485-30.14s18.836-12.484 30.142-12.484h213.135c11.305 0 22.147 4.489 30.141 12.484s12.486 18.837 12.486 30.14v213.137c0 11.307-4.491 22.148-12.486 30.144-7.994 7.991-18.836 12.484-30.141 12.484h-213.135zM937.417 121.050c-0.111 8.444-3.511 16.512-9.485 22.485-5.973 5.969-14.042 9.374-22.485 9.485h-297.963c-8.478 0-16.61-3.366-22.605-9.365-5.995-5.995-9.365-14.127-9.365-22.605s3.371-16.61 9.365-22.605c5.995-5.999 14.127-9.365 22.605-9.365h298.389c8.405 0.111 16.427 3.529 22.332 9.515 5.905 5.982 9.212 14.050 9.212 22.455zM937.417 284.736c0 8.482-3.366 16.614-9.361 22.609-5.999 5.995-14.131 9.361-22.609 9.361h-297.963c-8.478 0-16.61-3.366-22.605-9.361s-9.365-14.127-9.365-22.609c0-8.478 3.371-16.61 9.365-22.605s14.127-9.365 22.605-9.365h298.389c8.371 0.222 16.333 3.674 22.212 9.634s9.225 13.965 9.331 22.336z" />
<glyph unicode="&#xe90a;" d="M865.707 10.667h-344.747c-13.786 0-27.43 2.714-40.166 7.991-12.736 5.274-24.307 13.005-34.052 22.75s-17.476 21.316-22.752 34.052c-5.275 12.736-7.99 26.381-7.99 40.166v664.747c0 27.837 11.059 54.534 30.741 74.218 19.686 19.684 46.383 30.742 74.219 30.742h344.747c27.836 0 54.532-11.058 74.219-30.742 19.682-19.684 30.741-46.381 30.741-74.218v-664.747c0-13.786-2.714-27.43-7.991-40.166-5.274-12.736-13.005-24.307-22.75-34.052-9.749-9.745-21.316-17.476-34.052-22.75-12.736-5.278-26.381-7.991-40.166-7.991zM250.027 10.667h-93.013c-13.615 0-27.098 2.684-39.677 7.893s-24.009 12.847-33.636 22.473c-9.628 9.63-17.265 21.060-22.475 33.638s-7.892 26.061-7.892 39.676v667.307c0 27.498 10.924 53.869 30.367 73.313s45.815 30.367 73.313 30.367h93.013c27.498 0 53.869-10.924 73.313-30.367s30.367-45.815 30.367-73.313v-667.307c0-13.615-2.682-27.098-7.892-39.676s-12.847-24.009-22.475-33.638c-9.628-9.626-21.057-17.263-33.636-22.473s-26.061-7.893-39.677-7.893z" />
<glyph unicode="&#xe90b;" d="M865.707 10.667h-344.747c-13.786 0-27.43 2.714-40.166 7.991-12.736 5.274-24.307 13.005-34.052 22.75s-17.476 21.316-22.752 34.052c-5.275 12.736-7.99 26.381-7.99 40.166v664.747c0 27.837 11.059 54.534 30.741 74.218 19.686 19.684 46.383 30.742 74.219 30.742h344.747c27.836 0 54.532-11.058 74.219-30.742 19.682-19.684 30.741-46.381 30.741-74.218v-664.747c0-13.786-2.714-27.43-7.991-40.166-5.274-12.736-13.005-24.307-22.75-34.052s-21.316-17.476-34.052-22.75c-12.736-5.278-26.381-7.991-40.166-7.991zM520.96 821.333c-11.315 0-22.17-4.495-30.17-12.497s-12.497-18.854-12.497-30.17v-663.040c0-11.315 4.497-22.17 12.497-30.17s18.854-12.497 30.17-12.497h344.747c11.315 0 22.17 4.497 30.17 12.497s12.497 18.854 12.497 30.17v664.747c0 11.316-4.497 22.168-12.497 30.17s-18.854 12.497-30.17 12.497l-344.747-1.707zM250.027 10.667h-93.013c-13.615 0-27.098 2.684-39.677 7.893s-24.009 12.847-33.636 22.473c-9.628 9.63-17.265 21.060-22.475 33.638s-7.892 26.061-7.892 39.676v667.307c0 27.498 10.924 53.869 30.367 73.313s45.815 30.367 73.313 30.367h93.013c27.498 0 53.869-10.924 73.313-30.367s30.367-45.815 30.367-73.313v-667.307c0-13.615-2.682-27.098-7.892-39.676s-12.847-24.009-22.475-33.638c-9.628-9.626-21.057-17.263-33.636-22.473s-26.061-7.893-39.677-7.893zM157.013 821.333c-10.524 0-20.617-4.18-28.058-11.622s-11.622-17.534-11.622-28.058v-667.307c0-10.526 4.18-20.617 11.622-28.058s17.534-11.622 28.058-11.622h93.013c10.524 0 20.617 4.181 28.058 11.622s11.622 17.532 11.622 28.058v667.307c0 10.524-4.18 20.617-11.622 28.058s-17.534 11.622-28.058 11.622h-93.013z" />
<glyph unicode="&#xe90c;" d="M269.623 874.667h-138.319c-12.159-0.106-23.791-4.983-32.389-13.582s-13.476-20.23-13.582-32.389v-138.319c0.106-12.16 4.983-23.791 13.582-32.389s20.23-13.475 32.389-13.582h138.319c12.16 0.106 23.791 4.983 32.389 13.582s13.475 20.23 13.582 32.389v138.319c-0.106 12.159-4.983 23.791-13.582 32.389s-20.23 13.476-32.389 13.582zM914.031 874.667h-138.321c-12.16-0.106-23.791-4.983-32.388-13.582s-13.478-20.23-13.581-32.389v-138.319c0.102-12.16 4.983-23.791 13.581-32.389s20.228-13.475 32.388-13.582h138.321c12.156 0.106 23.787 4.983 32.388 13.582 8.597 8.599 13.474 20.23 13.581 32.389v138.319c-0.107 12.159-4.983 23.791-13.581 32.389-8.602 8.599-20.233 13.476-32.388 13.582zM591.825 874.667h-138.317c-12.16-0.106-23.791-4.983-32.39-13.582s-13.475-20.23-13.582-32.389v-138.319c0.106-12.16 4.983-23.791 13.582-32.389s20.23-13.475 32.39-13.582h138.317c12.16 0.106 23.791 4.983 32.388 13.582 8.602 8.599 13.478 20.23 13.585 32.389v138.319c-0.107 12.159-4.983 23.791-13.585 32.389-8.597 8.599-20.228 13.476-32.388 13.582zM914.031 552.464h-138.321c-12.16-0.106-23.791-4.983-32.388-13.582s-13.478-20.23-13.581-32.39v-138.317c0.102-12.16 4.983-23.791 13.581-32.388 8.597-8.602 20.228-13.478 32.388-13.585h138.321c12.156 0.107 23.787 4.983 32.388 13.585 8.597 8.597 13.474 20.228 13.581 32.388v138.317c-0.107 12.16-4.983 23.791-13.581 32.39-8.602 8.598-20.233 13.475-32.388 13.582zM591.825 552.464h-138.317c-12.16-0.106-23.791-4.983-32.39-13.582s-13.475-20.23-13.582-32.39v-138.317c0.106-12.16 4.983-23.791 13.582-32.388 8.599-8.602 20.23-13.478 32.39-13.585h138.317c12.16 0.107 23.791 4.983 32.388 13.585 8.602 8.597 13.478 20.228 13.585 32.388v138.317c-0.107 12.16-4.983 23.791-13.585 32.39-8.597 8.598-20.228 13.475-32.388 13.582zM269.623 552.464h-138.319c-12.159-0.106-23.791-4.983-32.389-13.582s-13.476-20.23-13.582-32.39v-138.317c0.106-12.16 4.983-23.791 13.582-32.388 8.598-8.602 20.23-13.478 32.389-13.585h138.319c12.16 0.107 23.791 4.983 32.389 13.585 8.598 8.597 13.475 20.228 13.582 32.388v138.317c-0.106 12.16-4.983 23.791-13.582 32.39s-20.23 13.475-32.389 13.582zM914.031 230.259h-138.321c-12.16-0.102-23.791-4.983-32.388-13.581s-13.478-20.228-13.581-32.388v-138.321c0.102-12.156 4.983-23.791 13.581-32.388s20.228-13.474 32.388-13.581h138.321c12.156 0.107 23.787 4.983 32.388 13.581 8.597 8.597 13.474 20.233 13.581 32.388v138.321c-0.107 12.16-4.983 23.791-13.581 32.388-8.602 8.597-20.233 13.478-32.388 13.581zM591.825 230.259h-138.317c-12.16-0.102-23.791-4.983-32.39-13.581-8.598-8.597-13.475-20.228-13.582-32.388v-138.321c0.106-12.156 4.983-23.791 13.582-32.388s20.23-13.474 32.39-13.581h138.317c12.16 0.107 23.791 4.983 32.388 13.581 8.602 8.597 13.478 20.233 13.585 32.388v138.321c-0.107 12.16-4.983 23.791-13.585 32.388-8.597 8.597-20.228 13.478-32.388 13.581zM269.623 230.259h-138.319c-12.159-0.102-23.791-4.983-32.389-13.581s-13.476-20.228-13.582-32.388v-138.321c0.106-12.156 4.983-23.791 13.582-32.388s20.23-13.474 32.389-13.581h138.319c12.16 0.107 23.791 4.983 32.389 13.581s13.475 20.233 13.582 32.388v138.321c-0.106 12.16-4.983 23.791-13.582 32.388s-20.23 13.478-32.389 13.581z" />
<glyph unicode="&#xe90d;" d="M254.571 813.644v-108.215h-108.215v108.215h108.215zM269.623 874.667h-138.319c-12.159-0.106-23.791-4.983-32.389-13.582s-13.476-20.23-13.582-32.389v-138.319c0.106-12.16 4.983-23.791 13.582-32.389s20.23-13.475 32.389-13.582h138.319c12.16 0.106 23.791 4.983 32.389 13.582s13.475 20.23 13.582 32.389v138.319c-0.106 12.159-4.983 23.791-13.582 32.389s-20.23 13.476-32.389 13.582zM898.978 813.644v-108.215h-108.215v108.215h108.215zM576.772 813.644v-108.215h-108.211v108.215h108.211zM898.978 491.439v-108.211h-108.215v108.211h108.215zM576.772 491.439v-108.211h-108.211v108.211h108.211zM254.571 491.439v-108.211h-108.215v108.211h108.215zM898.978 169.237v-108.215h-108.215v108.215h108.215zM576.772 169.237v-108.215h-108.211v108.215h108.211zM254.571 169.237v-108.215h-108.215v108.215h108.215zM914.031 874.667h-138.321c-12.16-0.106-23.791-4.983-32.388-13.582s-13.478-20.23-13.581-32.389v-138.319c0.102-12.16 4.983-23.791 13.581-32.389s20.228-13.475 32.388-13.582h138.321c12.156 0.106 23.791 4.983 32.388 13.582s13.474 20.23 13.581 32.389v138.319c-0.107 12.159-4.983 23.791-13.581 32.389s-20.233 13.476-32.388 13.582zM591.825 874.667h-138.317c-12.16-0.106-23.791-4.983-32.39-13.582s-13.475-20.23-13.582-32.389v-138.319c0.106-12.16 4.983-23.791 13.582-32.389s20.23-13.475 32.39-13.582h138.317c12.16 0.106 23.791 4.983 32.388 13.582 8.602 8.599 13.478 20.23 13.585 32.389v138.319c-0.107 12.159-4.983 23.791-13.585 32.389-8.597 8.599-20.228 13.476-32.388 13.582zM914.031 552.464h-138.321c-12.16-0.106-23.791-4.983-32.388-13.582s-13.478-20.23-13.581-32.39v-138.317c0.102-12.16 4.983-23.791 13.581-32.388 8.597-8.602 20.228-13.478 32.388-13.585h138.321c12.156 0.107 23.791 4.983 32.388 13.585 8.597 8.597 13.474 20.228 13.581 32.388v138.317c-0.107 12.16-4.983 23.791-13.581 32.39-8.597 8.598-20.233 13.475-32.388 13.582zM591.825 552.464h-138.317c-12.16-0.106-23.791-4.983-32.39-13.582s-13.475-20.23-13.582-32.39v-138.317c0.106-12.16 4.983-23.791 13.582-32.388 8.599-8.602 20.23-13.478 32.39-13.585h138.317c12.16 0.107 23.791 4.983 32.388 13.585 8.602 8.597 13.478 20.228 13.585 32.388v138.317c-0.107 12.16-4.983 23.791-13.585 32.39-8.597 8.598-20.228 13.475-32.388 13.582zM269.623 552.464h-138.319c-12.159-0.106-23.791-4.983-32.389-13.582s-13.476-20.23-13.582-32.39v-138.317c0.106-12.16 4.983-23.791 13.582-32.388 8.598-8.602 20.23-13.478 32.389-13.585h138.319c12.16 0.107 23.791 4.983 32.389 13.585 8.598 8.597 13.475 20.228 13.582 32.388v138.317c-0.106 12.16-4.983 23.791-13.582 32.39s-20.23 13.475-32.389 13.582zM914.031 230.259h-138.321c-12.16-0.102-23.791-4.983-32.388-13.581s-13.478-20.228-13.581-32.388v-138.321c0.102-12.156 4.983-23.791 13.581-32.388s20.228-13.474 32.388-13.581h138.321c12.156 0.107 23.791 4.983 32.388 13.581s13.474 20.233 13.581 32.388v138.321c-0.107 12.16-4.983 23.791-13.581 32.388s-20.233 13.478-32.388 13.581zM591.825 230.259h-138.317c-12.16-0.102-23.791-4.983-32.39-13.581-8.598-8.597-13.475-20.228-13.582-32.388v-138.321c0.106-12.156 4.983-23.791 13.582-32.388s20.23-13.474 32.39-13.581h138.317c12.16 0.107 23.791 4.983 32.388 13.581 8.602 8.597 13.478 20.233 13.585 32.388v138.321c-0.107 12.16-4.983 23.791-13.585 32.388-8.597 8.597-20.228 13.478-32.388 13.581zM269.623 230.259h-138.319c-12.159-0.102-23.791-4.983-32.389-13.581s-13.476-20.228-13.582-32.388v-138.321c0.106-12.156 4.983-23.791 13.582-32.388s20.23-13.474 32.389-13.581h138.319c12.16 0.107 23.791 4.983 32.389 13.581s13.475 20.233 13.582 32.388v138.321c-0.106 12.16-4.983 23.791-13.582 32.388s-20.23 13.478-32.389 13.581z" />
<glyph unicode="&#xe90e;" d="M375.893-10.667h-197.12c-27.576 0.111-53.991 11.115-73.49 30.618-19.5 19.499-30.504 45.914-30.616 73.489v709.12c0.112 27.576 11.117 53.991 30.616 73.49s45.914 30.504 73.49 30.616h197.12c27.611 0 54.093-10.968 73.613-30.492 19.524-19.524 30.494-46.004 30.494-73.615v-709.12c0-27.61-10.97-54.093-30.494-73.613-19.52-19.524-46.002-30.494-73.613-30.494zM847.36 482.987h-202.24c-27.012 0.111-52.881 10.893-71.983 29.99-19.098 19.102-29.879 44.972-29.99 71.983v219.733c0.111 27.011 10.893 52.882 29.99 71.982 19.102 19.099 44.971 29.879 71.983 29.991h202.24c27.046 0 52.983-10.743 72.107-29.867s29.867-45.061 29.867-72.106v-219.733c-0.111-27.011-10.893-52.881-29.99-71.983-19.102-19.098-44.971-29.879-71.983-29.99zM846.933-10.667h-200.96c-27.196 0-53.286 10.773-72.559 29.965s-30.157 45.239-30.268 72.435v224c0 13.483 2.662 26.833 7.834 39.287 5.175 12.45 12.757 23.757 22.31 33.271s20.894 17.050 33.365 22.17c12.471 5.12 25.835 7.727 39.317 7.671h200.96c27.157 0 53.205-10.79 72.41-29.99 19.2-19.204 29.99-45.252 29.99-72.41v-224c-0.111-27.123-10.935-53.103-30.118-72.282-19.179-19.183-45.158-30.007-72.282-30.118z" />
<glyph unicode="&#xe90f;" d="M375.893-10.667h-197.12c-27.576 0.111-53.991 11.115-73.49 30.618-19.5 19.499-30.504 45.914-30.616 73.489v709.12c0.112 27.576 11.117 53.991 30.616 73.49s45.914 30.504 73.49 30.616h197.12c27.611 0 54.093-10.968 73.613-30.492 19.524-19.524 30.494-46.004 30.494-73.615v-709.12c0-27.61-10.97-54.093-30.494-73.613-19.52-19.524-46.002-30.494-73.613-30.494zM178.773 842.667c-10.637 0-20.838-4.226-28.36-11.747s-11.747-17.723-11.747-28.36v-709.12c0-10.637 4.226-20.838 11.747-28.361s17.723-11.746 28.36-11.746h197.12c10.637 0 20.838 4.224 28.36 11.746s11.747 17.724 11.747 28.361v709.12c0 10.637-4.226 20.838-11.747 28.36s-17.723 11.747-28.36 11.747h-197.12zM847.36 482.987h-202.24c-27.012 0.111-52.881 10.893-71.983 29.99-19.098 19.102-29.879 44.972-29.99 71.983v219.733c0.111 27.011 10.893 52.882 29.99 71.982 19.102 19.099 44.971 29.879 71.983 29.991h202.24c27.046 0 52.983-10.743 72.107-29.867s29.867-45.061 29.867-72.106v-219.733c-0.111-27.011-10.893-52.881-29.99-71.983-19.102-19.098-44.971-29.879-71.983-29.99zM645.12 842.667c-10.069 0-19.729-4.001-26.85-11.122s-11.123-16.78-11.123-26.851v-219.733c0-10.071 4.002-19.73 11.123-26.851s16.781-11.122 26.85-11.122h202.24c4.988 0 9.924 0.982 14.532 2.891s8.794 4.705 12.318 8.232c3.529 3.526 6.323 7.712 8.235 12.319 1.907 4.607 2.889 9.545 2.889 14.532v219.733c0 4.987-0.981 9.925-2.889 14.532-1.911 4.607-4.706 8.793-8.235 12.32-3.524 3.526-7.71 6.323-12.318 8.231s-9.545 2.891-14.532 2.891h-202.24zM846.933-10.667h-200.96c-27.196 0-53.286 10.773-72.559 29.965s-30.157 45.239-30.268 72.435v224c0 13.483 2.662 26.833 7.834 39.287 5.175 12.45 12.757 23.757 22.31 33.271s20.894 17.050 33.365 22.17c12.471 5.12 25.835 7.727 39.317 7.671h200.96c27.157 0 53.205-10.79 72.41-29.99 19.2-19.204 29.99-45.252 29.99-72.41v-224c-0.111-27.123-10.935-53.103-30.118-72.282-19.179-19.183-45.158-30.007-72.282-30.118zM645.973 354.133c-5.077 0.055-10.116-0.896-14.827-2.799-4.706-1.907-8.99-4.723-12.604-8.294-3.61-3.571-6.477-7.825-8.431-12.514-1.958-4.685-2.965-9.715-2.965-14.793v-224c0.111-10.223 4.254-19.989 11.52-27.179 7.27-7.189 17.084-11.221 27.307-11.221h200.96c10.15 0.111 19.853 4.194 27.029 11.371s11.26 16.879 11.371 27.029v224c0 10.185-4.045 19.951-11.247 27.153s-16.969 11.247-27.153 11.247h-200.96z" />
<glyph unicode="&#xe910;" d="M853.333 10.667h-51.2c-26.027 0-50.987 10.338-69.389 28.745-18.406 18.402-28.745 43.362-28.745 69.389v339.2c0 26.065 10.325 51.072 28.715 69.542 18.394 18.471 43.354 28.905 69.419 29.018h51.2c25.694-0.668 50.108-11.345 68.045-29.756 17.933-18.415 27.964-43.102 27.955-68.804v-341.333c-0.546-25.289-10.833-49.395-28.719-67.281s-41.993-28.173-67.281-28.719zM543.147 10.667h-51.2c-25.545 0.107-50.035 10.214-68.218 28.16s-28.616 42.295-29.062 67.84v341.333c0 25.839 10.235 50.628 28.467 68.937 18.232 18.313 42.974 28.657 68.813 28.77h49.067c12.924 0.113 25.741-2.329 37.717-7.183s22.878-12.025 32.077-21.105c9.195-9.079 16.508-19.887 21.521-31.799 5.009-11.913 7.616-24.695 7.671-37.619v-341.333c-0.559-25.805-11.264-50.347-29.79-68.318-18.526-17.967-43.388-27.913-69.197-27.682h2.133zM231.68 10.667h-57.6c-26.331 0.111-51.552 10.624-70.172 29.239-18.619 18.62-29.129 43.844-29.242 70.174v335.36c0.112 26.33 10.622 51.554 29.242 70.174 18.619 18.617 43.84 29.127 70.172 29.239h55.467c26.331-0.112 51.552-10.622 70.172-29.239 18.619-18.62 29.129-43.844 29.242-70.174v-335.36c-0.112-26.33-10.622-51.554-29.242-70.174-18.619-18.615-43.84-29.129-70.172-29.239h2.133zM844.8 608h-663.467c-28.29 0-55.421 11.238-75.425 31.242s-31.242 47.135-31.242 75.425v64c0 28.29 11.238 55.421 31.242 75.425s47.135 31.242 75.425 31.242h661.333c28.288 0 55.42-11.238 75.426-31.242 20.002-20.004 31.241-47.135 31.241-75.425v-64c0-28.29-11.238-55.421-31.241-75.425-20.006-20.004-47.138-31.242-75.426-31.242h2.133z" />
<glyph unicode="&#xe911;" d="M853.333 10.667h-51.2c-26.027 0-50.987 10.338-69.389 28.745-18.406 18.402-28.745 43.362-28.745 69.389v339.2c0 26.065 10.325 51.072 28.715 69.542 18.394 18.471 43.354 28.905 69.419 29.018h51.2c25.694-0.668 50.108-11.345 68.045-29.756 17.933-18.415 27.964-43.102 27.955-68.804v-341.333c-0.546-25.289-10.833-49.395-28.719-67.281s-41.993-28.173-67.281-28.719zM802.133 480c-8.695 0.017-17.067-3.285-23.411-9.233-6.345-5.943-10.18-14.089-10.722-22.767v-341.333c0-9.054 3.597-17.737 9.997-24.137s15.083-9.997 24.137-9.997h51.2c9.054 0 17.737 3.597 24.137 9.997s9.997 15.083 9.997 24.137v341.333c0.055 4.518-0.785 9.003-2.475 13.193s-4.194 8.004-7.369 11.221c-3.179 3.213-6.959 5.764-11.127 7.509-4.169 1.741-8.644 2.637-13.163 2.637l-51.2-2.56zM543.147 10.667h-51.2c-25.545 0.107-50.035 10.214-68.218 28.16s-28.616 42.295-29.062 67.84v341.333c0 25.839 10.235 50.628 28.467 68.937 18.232 18.313 42.974 28.657 68.813 28.77h49.067c12.924 0.113 25.741-2.329 37.717-7.183s22.878-12.025 32.073-21.105c9.199-9.079 16.512-19.887 21.525-31.799 5.009-11.913 7.616-24.695 7.671-37.619v-341.333c-0.559-25.805-11.264-50.347-29.79-68.318-18.526-17.967-43.388-27.913-69.197-27.682h2.133zM494.080 480c-8.866-0.111-17.331-3.712-23.561-10.022s-9.719-14.818-9.719-23.684v-339.627c-0.055-4.407 0.764-8.781 2.411-12.868s4.087-7.804 7.185-10.94c3.098-3.136 6.784-5.628 10.85-7.326s8.427-2.573 12.834-2.573h49.067c8.939 0 17.515 3.55 23.834 9.873 6.323 6.319 9.873 14.895 9.873 23.834v341.333c0 8.939-3.55 17.515-9.873 23.834-6.319 6.323-14.895 9.873-23.834 9.873l-49.067-1.707zM231.68 10.667h-57.6c-26.331 0.111-51.552 10.624-70.172 29.239-18.619 18.62-29.129 43.844-29.242 70.174v335.36c0.112 26.33 10.622 51.554 29.242 70.174 18.619 18.617 43.84 29.127 70.172 29.239h55.467c26.331-0.112 51.552-10.622 70.172-29.239 18.619-18.62 29.129-43.844 29.242-70.174v-335.36c-0.112-26.33-10.622-51.554-29.242-70.174-18.619-18.615-43.84-29.129-70.172-29.239h2.133zM176.213 480c-9.392 0-18.4-3.729-25.041-10.372s-10.372-15.65-10.372-25.041v-335.36c0-9.391 3.731-18.398 10.372-25.041s15.649-10.372 25.041-10.372h55.467c9.392 0 18.4 3.729 25.041 10.372s10.372 15.65 10.372 25.041v336.213c0 9.391-3.731 18.398-10.372 25.041s-15.649 10.372-25.041 10.372l-55.467-0.853zM844.8 608h-663.467c-28.29 0-55.421 11.238-75.425 31.242s-31.242 47.135-31.242 75.425v64c0 28.29 11.238 55.421 31.242 75.425s47.135 31.242 75.425 31.242h661.333c28.288 0 55.42-11.238 75.426-31.242 20.002-20.004 31.241-47.135 31.241-75.425v-64c0-28.29-11.238-55.421-31.241-75.425-20.006-20.004-47.138-31.242-75.426-31.242h2.133zM183.467 821.333c-11.316 0-22.168-4.495-30.17-12.497s-12.497-18.854-12.497-30.17v-64c0-11.316 4.495-22.168 12.497-30.17s18.854-12.497 30.17-12.497h661.333c11.315 0 22.17 4.495 30.17 12.497s12.497 18.854 12.497 30.17v64c0 11.316-4.497 22.168-12.497 30.17s-18.854 12.497-30.17 12.497h-661.333z" />
<glyph unicode="&#xe912;" d="M847.36 632.32h-670.72c-27.045 0-52.982 10.743-72.106 29.867s-29.867 45.061-29.867 72.106v49.067c0 27.045 10.743 52.982 29.867 72.106s45.061 29.867 72.106 29.867h670.72c27.046 0 52.983-10.743 72.107-29.867s29.867-45.061 29.867-72.106v-49.067c0-27.045-10.743-52.982-29.867-72.106s-45.060-29.867-72.107-29.867zM270.507 10.667h-93.867c-27.045 0-52.982 10.743-72.106 29.867s-29.867 45.060-29.867 72.107v352.427c0 27.046 10.743 52.983 29.867 72.106s45.061 29.868 72.106 29.868h93.867c26.971-0.113 52.799-10.906 71.831-30.018 19.031-19.113 29.716-44.986 29.716-71.956v-352.427c0-26.97-10.685-52.843-29.716-71.957-19.032-19.11-44.86-29.905-71.831-30.016zM846.080 10.667h-305.92c-27.349 0.111-53.547 11.025-72.887 30.366s-30.255 45.538-30.366 72.887v349.44c0 27.422 10.863 53.73 30.217 73.162 19.349 19.432 45.615 30.405 73.037 30.518h305.92c27.422-0.113 53.687-11.086 73.037-30.518 19.354-19.432 30.217-45.74 30.217-73.162v-349.44c-0.111-27.349-11.025-53.547-30.366-72.887s-45.538-30.255-72.887-30.366z" />
<glyph unicode="&#xe913;" d="M847.36 632.32h-670.72c-27.045 0-52.982 10.743-72.106 29.867s-29.867 45.061-29.867 72.106v49.067c0 27.045 10.743 52.982 29.867 72.106s45.061 29.867 72.106 29.867h670.72c27.046 0 52.983-10.743 72.107-29.867s29.867-45.061 29.867-72.106v-49.067c0-27.045-10.743-52.982-29.867-72.106s-45.060-29.867-72.107-29.867zM176.64 821.333c-10.071 0-19.73-4.001-26.851-11.122s-11.122-16.78-11.122-26.851v-49.067c0-10.071 4.001-19.73 11.122-26.851s16.78-11.122 26.851-11.122h670.72c4.988 0 9.924 0.982 14.532 2.891s8.794 4.705 12.318 8.232c3.529 3.526 6.323 7.712 8.235 12.319 1.907 4.607 2.889 9.545 2.889 14.532v49.067c0 4.987-0.981 9.925-2.889 14.532-1.911 4.607-4.706 8.793-8.235 12.32-3.524 3.526-7.71 6.323-12.318 8.231s-9.545 2.891-14.532 2.891h-670.72zM270.507 10.667h-93.867c-27.045 0-52.982 10.743-72.106 29.867s-29.867 45.060-29.867 72.107v352.427c0 27.046 10.743 52.983 29.867 72.106s45.061 29.868 72.106 29.868h93.867c26.971-0.113 52.799-10.906 71.83-30.018s29.717-44.986 29.716-71.956v-352.427c0-26.97-10.685-52.843-29.716-71.957-19.031-19.11-44.859-29.905-71.83-30.016zM176.64 503.040c-10.071 0-19.73-4.002-26.851-11.123s-11.122-16.781-11.122-26.85v-352.427c0-4.988 0.982-9.924 2.891-14.532s4.705-8.794 8.231-12.318c3.526-3.529 7.712-6.323 12.32-8.235 4.607-1.907 9.545-2.889 14.532-2.889h93.867c9.997 0.111 19.546 4.164 26.576 11.273s10.971 16.704 10.971 26.701v352.427c0 9.997-3.942 19.593-10.971 26.701s-16.579 11.162-26.576 11.273h-93.867zM846.080 10.667h-305.92c-27.349 0.111-53.547 11.025-72.887 30.366s-30.255 45.538-30.366 72.887v349.44c0 27.422 10.863 53.73 30.217 73.162 19.349 19.432 45.615 30.405 73.037 30.518h305.92c27.422-0.113 53.687-11.086 73.037-30.518 19.354-19.432 30.217-45.74 30.217-73.162v-349.44c-0.111-27.349-11.025-53.547-30.366-72.887s-45.538-30.255-72.887-30.366zM540.16 503.040c-10.449-0.111-20.433-4.343-27.785-11.772-7.347-7.428-11.469-17.459-11.469-27.908v-349.44c0-10.411 4.134-20.395 11.499-27.755 7.36-7.364 17.344-11.499 27.755-11.499h305.92c10.411 0 20.395 4.134 27.755 11.499 7.364 7.36 11.499 17.344 11.499 27.755v349.44c0 10.449-4.122 20.48-11.469 27.908-7.351 7.428-17.335 11.661-27.785 11.772h-305.92z" />
<glyph unicode="&#xe914;" d="M376.35 478.929h-211.953c-27.962 0.555-54.592 12.053-74.17 32.030-19.578 19.972-30.541 46.827-30.535 74.795v211.953c0.445 28.037 11.896 54.775 31.881 74.443s46.903 30.69 74.943 30.686h211.953c28.332 0 55.502-11.255 75.538-31.288 20.032-20.033 31.287-47.205 31.287-75.536v-211.953c-0.222-14.065-3.217-27.948-8.819-40.852-5.598-12.906-13.692-24.575-23.817-34.342-10.121-9.771-22.071-17.442-35.168-22.579s-27.077-7.637-41.141-7.356zM862.148 478.929h-211.955c-28.331 0-55.501 11.255-75.537 31.287-20.032 20.036-31.287 47.206-31.287 75.537v211.953c0 28.332 11.255 55.503 31.287 75.537 20.036 20.033 47.206 31.288 75.537 31.288h211.955c28.331 0 55.501-11.255 75.533-31.288 20.036-20.034 31.292-47.205 31.292-75.537v-211.953c0.004-27.968-10.961-54.822-30.537-74.795-19.58-19.977-46.208-31.475-74.172-32.030h-2.116zM859.605-8.563h-205.598c-28.331 0-55.501 11.255-75.537 31.287-20.032 20.036-31.287 47.206-31.287 75.537v211.955c0 28.331 11.255 55.501 31.287 75.533 20.036 20.036 47.206 31.292 75.537 31.292h209.835c28.331 0 55.501-11.255 75.537-31.292 20.032-20.032 31.287-47.202 31.287-75.533v-211.955c0-28.331-11.255-55.501-31.287-75.537-20.036-20.032-47.206-31.287-75.537-31.287h-4.237zM372.111-8.563h-211.953c-28.332 0-55.503 11.255-75.536 31.287-20.034 20.036-31.288 47.206-31.288 75.537v211.955c0 28.331 11.255 55.501 31.288 75.533 20.033 20.036 47.205 31.292 75.536 31.292h211.953c28.332 0 55.503-11.255 75.535-31.292 20.036-20.032 31.287-47.202 31.287-75.533v-211.955c0.026-27.614-10.645-54.161-29.773-74.078-19.127-19.913-45.22-31.65-72.811-32.747h-4.239z" />
<glyph unicode="&#xe915;" d="M376.35 478.929h-211.953c-27.962 0.555-54.592 12.053-74.17 32.030-19.578 19.972-30.541 46.827-30.535 74.795v211.953c0.445 28.037 11.896 54.775 31.881 74.443s46.903 30.69 74.943 30.686h211.953c28.332 0 55.502-11.255 75.538-31.288 20.032-20.033 31.287-47.205 31.287-75.536v-211.953c-0.222-14.065-3.217-27.948-8.819-40.852-5.598-12.906-13.692-24.575-23.817-34.342-10.121-9.771-22.071-17.442-35.168-22.579s-27.077-7.637-41.141-7.356zM164.397 839.249c-11.243 0-22.025-4.466-29.975-12.416s-12.416-18.732-12.416-29.975v-211.953c0-11.243 4.466-22.025 12.416-29.975s18.732-12.416 29.975-12.416h211.953c11.243 0 22.025 4.466 29.975 12.416s12.416 18.732 12.416 29.975v211.953c0 11.243-4.466 22.025-12.416 29.975s-18.732 12.416-29.975 12.416h-211.953zM862.148 478.929h-211.955c-28.331 0-55.501 11.255-75.537 31.287-20.032 20.036-31.287 47.206-31.287 75.537v211.953c0 28.332 11.255 55.503 31.287 75.537 20.036 20.033 47.206 31.288 75.537 31.288h211.955c28.331 0 55.501-11.255 75.533-31.288 20.036-20.034 31.292-47.205 31.292-75.537v-211.953c0.004-27.968-10.961-54.822-30.537-74.795-19.58-19.977-46.208-31.475-74.172-32.030h-2.116zM650.193 839.249c-11.243 0-22.025-4.466-29.973-12.416s-12.416-18.732-12.416-29.975v-211.953c0-11.243 4.467-22.025 12.416-29.975s18.731-12.416 29.973-12.416h211.955c11.243 0 22.025 4.466 29.973 12.416s12.416 18.732 12.416 29.975v211.953c0 11.243-4.467 22.025-12.416 29.975s-18.731 12.416-29.973 12.416h-211.955zM859.605-8.563h-205.598c-28.331 0-55.501 11.255-75.537 31.287-20.032 20.036-31.287 47.206-31.287 75.537v211.955c0 28.331 11.255 55.501 31.287 75.533 20.036 20.036 47.206 31.292 75.537 31.292h209.835c28.331 0 55.501-11.255 75.537-31.292 20.032-20.032 31.287-47.202 31.287-75.533v-211.955c0-28.331-11.255-55.501-31.287-75.537-20.036-20.032-47.206-31.287-75.537-31.287h-4.237zM649.771 351.757c-11.243 0-22.025-4.467-29.978-12.416-7.949-7.949-12.416-18.731-12.416-29.973v-211.955c0-11.243 4.467-22.025 12.416-29.973 7.953-7.949 18.735-12.416 29.978-12.416h209.835c11.243 0 22.025 4.467 29.973 12.416s12.416 18.731 12.416 29.973v211.955c0 11.243-4.467 22.025-12.416 29.973s-18.731 12.416-29.973 12.416h-209.835zM372.111-8.563h-211.953c-28.332 0-55.503 11.255-75.536 31.287-20.034 20.036-31.288 47.206-31.288 75.537v211.955c0 28.331 11.255 55.501 31.288 75.533 20.033 20.036 47.205 31.292 75.536 31.292h211.953c28.332 0 55.503-11.255 75.535-31.292 20.036-20.032 31.287-47.202 31.287-75.533v-211.955c0.026-27.614-10.645-54.161-29.773-74.078-19.127-19.913-45.22-31.65-72.811-32.747h-4.239zM160.158 351.757c-11.243 0-22.025-4.467-29.975-12.416s-12.416-18.731-12.416-29.973v-211.955c0-11.243 4.466-22.025 12.416-29.973s18.732-12.416 29.975-12.416h211.953c11.243 0 22.025 4.467 29.975 12.416s12.416 18.731 12.416 29.973v211.955c0 11.243-4.466 22.025-12.416 29.973s-18.732 12.416-29.975 12.416h-211.953z" />
<glyph unicode="&#xe916;" d="M251.307 21.333h-94.293c-13.615 0-27.098 2.752-39.677 8.094-12.579 5.346-24.009 13.175-33.636 23.053-9.628 9.873-17.265 21.598-22.475 34.496-5.21 12.902-7.892 26.731-7.892 40.695v640.657c0 28.203 10.924 55.25 30.367 75.193s45.815 31.146 73.313 31.146h94.293c27.498 0 53.869-11.203 73.313-31.146s30.367-46.99 30.367-75.193v-640.657c0-13.965-2.682-27.793-7.892-40.695-5.21-12.898-12.847-24.623-22.475-34.496-9.628-9.877-21.057-17.707-33.636-23.053-12.579-5.342-26.061-8.094-39.677-8.094zM867.84 21.333h-348.16c-27.196 0.115-53.244 11.277-72.435 31.044-19.191 19.763-29.965 46.524-29.965 74.419v184.23c0 27.895 10.773 54.656 29.965 74.423 19.191 19.763 45.239 30.925 72.435 31.040h348.16c27.273 0 53.427-11.11 72.708-30.886 19.285-19.78 30.118-46.605 30.118-74.577v-184.23c0-27.972-10.833-54.797-30.118-74.573-19.281-19.78-45.436-30.891-72.708-30.891zM867.84 482.133h-348.16c-27.123 0.115-53.103 11.217-72.282 30.891-19.183 19.669-30.006 46.316-30.118 74.135v182.045c0 27.895 10.773 54.653 29.965 74.419s45.239 30.928 72.435 31.044h348.16c27.273 0 53.427-11.111 72.708-30.889 19.285-19.778 30.118-46.603 30.118-74.574v-184.233c-0.111-27.895-10.995-54.607-30.268-74.289-19.273-19.686-45.363-30.737-72.559-30.737v2.189z" />
<glyph unicode="&#xe917;" d="M251.307 21.333h-94.293c-13.615 0-27.098 2.752-39.677 8.094-12.579 5.346-24.009 13.175-33.636 23.053-9.628 9.873-17.265 21.598-22.475 34.496-5.21 12.902-7.892 26.731-7.892 40.695v640.657c0 28.203 10.924 55.25 30.367 75.193s45.815 31.146 73.313 31.146h94.293c27.498 0 53.869-11.203 73.313-31.146s30.367-46.99 30.367-75.193v-640.657c0-13.965-2.682-27.793-7.892-40.695-5.21-12.898-12.847-24.623-22.475-34.496-9.628-9.877-21.057-17.707-33.636-23.053-12.579-5.342-26.061-8.094-39.677-8.094zM157.013 809.026c-10.524 0-20.617-4.288-28.058-11.92s-11.622-17.984-11.622-28.777v-640.657c0-10.795 4.18-21.146 11.622-28.779 3.685-3.776 8.059-6.775 12.873-8.819 4.815-2.048 9.974-3.098 15.185-3.098h94.293c10.524 0 20.617 4.288 28.058 11.917 7.441 7.633 11.622 17.984 11.622 28.779v640.657c0 10.794-4.18 21.145-11.622 28.777s-17.534 11.92-28.058 11.92h-94.293zM867.84 21.333h-348.16c-27.196 0.115-53.244 11.277-72.435 31.044-19.191 19.763-29.965 46.524-29.965 74.419v184.23c0 27.895 10.773 54.656 29.965 74.419 19.191 19.767 45.239 30.929 72.435 31.044h348.16c27.273 0 53.427-11.11 72.708-30.886 19.285-19.78 30.118-46.605 30.118-74.577v-184.23c0-27.972-10.833-54.797-30.118-74.573-19.281-19.78-45.436-30.891-72.708-30.891zM519.68 350.852c-5.077 0-10.108-1.033-14.793-3.042-4.689-2.005-8.943-4.945-12.514-8.649s-6.387-8.098-8.294-12.928c-1.903-4.826-2.854-9.997-2.799-15.206v-184.23c-0.055-5.21 0.896-10.377 2.799-15.206 1.907-4.83 4.723-9.225 8.294-12.928s7.825-6.643 12.514-8.649c4.685-2.005 9.715-3.038 14.793-3.038h348.16c10.295 0 20.173 4.194 27.456 11.661 7.279 7.471 11.371 17.6 11.371 28.16v184.23c0 10.564-4.092 20.693-11.371 28.16-7.283 7.467-17.161 11.665-27.456 11.665h-348.16zM867.84 482.133h-348.16c-27.123 0.115-53.103 11.217-72.282 30.891-19.183 19.669-30.006 46.316-30.118 74.135v182.045c0 27.895 10.773 54.653 29.965 74.419s45.239 30.928 72.435 31.044h348.16c27.273 0 53.427-11.111 72.708-30.889 19.285-19.778 30.118-46.603 30.118-74.574v-184.233c-0.111-27.895-10.995-54.607-30.268-74.289-19.273-19.686-45.363-30.737-72.559-30.737v2.189zM519.68 809.026c-5.077 0-10.108-1.033-14.793-3.039-4.689-2.007-8.943-4.947-12.514-8.651s-6.387-8.097-8.294-12.926c-1.903-4.829-2.854-9.997-2.799-15.206v-184.233c0-10.446 4.045-20.463 11.247-27.849s16.969-11.535 27.153-11.535h348.16c5.077-0.058 10.116 0.918 14.827 2.871 4.706 1.953 8.99 4.845 12.604 8.508 3.61 3.663 6.477 8.024 8.431 12.831 1.958 4.807 2.965 9.965 2.965 15.174v184.233c0 10.561-4.092 20.69-11.371 28.158-7.283 7.468-17.161 11.664-27.456 11.664h-348.16z" />
<glyph unicode="&#xe918;" d="M460.373 10.667h-260.267c-38.927 0-76.259 15.462-103.785 42.991-27.525 27.524-42.989 64.858-42.989 103.782v581.12c0 38.927 15.464 76.259 42.989 103.785s64.858 42.989 103.785 42.989h260.267c38.852-0.113 76.075-15.626 103.509-43.139 27.43-27.513 42.837-64.781 42.837-103.634v-581.12c0-38.852-15.407-76.122-42.837-103.633-27.435-27.516-64.657-43.029-103.509-43.14zM866.987 10.667h-92.16c-13.615 0-27.098 2.684-39.676 7.893s-24.009 12.847-33.638 22.473c-9.626 9.63-17.263 21.060-22.473 33.638s-7.893 26.061-7.893 39.676v667.307c0 27.498 10.923 53.869 30.366 73.313s45.815 30.367 73.314 30.367h92.16c27.499 0 53.871-10.924 73.314-30.367s30.366-45.815 30.366-73.313v-667.307c0-13.615-2.684-27.098-7.893-39.676s-12.847-24.009-22.473-33.638c-9.63-9.626-21.060-17.263-33.638-22.473s-26.061-7.893-39.676-7.893z" />
<glyph unicode="&#xe919;" d="M460.373 10.667h-260.267c-38.927 0-76.259 15.462-103.785 42.991-27.525 27.524-42.989 64.858-42.989 103.782v581.12c0 38.927 15.464 76.259 42.989 103.785s64.858 42.989 103.785 42.989h260.267c38.852-0.113 76.075-15.626 103.509-43.139 27.43-27.513 42.837-64.781 42.837-103.634v-581.12c0-38.852-15.407-76.122-42.837-103.633-27.435-27.516-64.657-43.029-103.509-43.14zM200.107 821.333c-21.953 0-43.007-8.721-58.53-24.244s-24.244-36.577-24.244-58.53v-581.12c0-21.952 8.721-43.008 24.244-58.53s36.577-24.243 58.53-24.243h260.267c10.85 0 21.594 2.142 31.612 6.31 10.018 4.164 19.115 10.266 26.769 17.958 7.65 7.693 13.709 16.819 17.822 26.859 4.113 10.044 6.199 20.796 6.144 31.646v581.12c0.055 10.85-2.031 21.604-6.144 31.644s-10.172 19.168-17.822 26.86c-7.654 7.692-16.751 13.795-26.769 17.961s-20.762 6.309-31.612 6.309h-260.267zM866.987 10.667h-92.16c-13.615 0-27.098 2.684-39.676 7.893s-24.009 12.847-33.638 22.473c-9.626 9.63-17.263 21.060-22.473 33.638s-7.893 26.061-7.893 39.676v667.307c0 27.498 10.923 53.869 30.366 73.313s45.815 30.367 73.314 30.367h92.16c27.499 0 53.871-10.924 73.314-30.367s30.366-45.815 30.366-73.313v-667.307c0-13.615-2.684-27.098-7.893-39.676s-12.847-24.009-22.473-33.638c-9.63-9.626-21.060-17.263-33.638-22.473s-26.061-7.893-39.676-7.893zM774.827 821.333c-10.526 0-20.617-4.18-28.058-11.622s-11.622-17.534-11.622-28.058v-667.307c0-10.526 4.181-20.617 11.622-28.058s17.532-11.622 28.058-11.622h92.16c10.526 0 20.617 4.181 28.058 11.622s11.622 17.532 11.622 28.058v667.307c0 10.524-4.181 20.617-11.622 28.058s-17.532 11.622-28.058 11.622h-92.16z" />
<glyph unicode="&#xe91a;" d="M849.062 394.667h-206.933c-27.307 0.111-53.461 11.042-72.734 30.391-19.273 19.354-30.093 45.551-30.093 72.862v305.92c0 27.271 10.837 53.425 30.118 72.71 19.285 19.284 45.44 30.117 72.708 30.117h206.933c27.273 0 53.427-10.833 72.713-30.117 19.281-19.284 30.114-45.438 30.114-72.71v-305.92c0-27.311-10.816-53.508-30.089-72.862-19.273-19.349-45.427-30.281-72.738-30.391zM849.916-10.667h-203.947c-27.081 0.111-53.018 10.953-72.132 30.144-19.11 19.191-29.841 45.171-29.841 72.256v139.093c0 27.046 10.743 52.983 29.871 72.107 19.123 19.123 45.060 29.867 72.102 29.867h203.947c27.046 0 52.983-10.743 72.107-29.867s29.867-45.060 29.867-72.107v-139.093c0-27.085-10.726-53.065-29.841-72.256-19.11-19.191-45.047-30.033-72.132-30.144zM373.331-10.667h-197.12c-27.576 0.111-53.991 11.115-73.49 30.618-19.5 19.499-30.504 45.914-30.616 73.489v709.12c0.112 27.576 11.117 53.991 30.616 73.49s45.914 30.504 73.49 30.616h197.12c27.576-0.112 53.993-11.117 73.492-30.616s30.502-45.914 30.613-73.49v-709.12c-0.111-27.575-11.115-53.99-30.613-73.489-19.499-19.503-45.915-30.507-73.492-30.618z" />
<glyph unicode="&#xe91b;" d="M849.062 394.667h-206.933c-27.307 0.111-53.461 11.042-72.734 30.391-19.273 19.354-30.093 45.551-30.093 72.862v305.92c0 27.271 10.837 53.425 30.118 72.71 19.285 19.284 45.44 30.117 72.708 30.117h206.933c27.273 0 53.427-10.833 72.713-30.117 19.281-19.284 30.114-45.438 30.114-72.71v-305.92c0-27.311-10.816-53.508-30.089-72.862-19.273-19.349-45.427-30.281-72.738-30.391zM642.129 842.667c-10.295 0-20.173-4.090-27.452-11.372-7.283-7.281-11.375-17.157-11.375-27.455v-305.92c0-10.338 4.079-20.258 11.349-27.605 7.266-7.351 17.143-11.537 27.477-11.648h206.933c10.338 0.111 20.211 4.297 27.482 11.648 7.27 7.347 11.349 17.267 11.345 27.605v305.92c0 10.298-4.087 20.173-11.371 27.455s-17.156 11.372-27.456 11.372h-206.933zM849.916-10.667h-203.947c-27.081 0.111-53.018 10.953-72.132 30.144-19.11 19.191-29.841 45.171-29.841 72.256v139.093c0 27.046 10.743 52.983 29.871 72.107 19.123 19.123 45.060 29.867 72.102 29.867h203.947c27.046 0 52.983-10.743 72.107-29.867s29.867-45.060 29.867-72.107v-139.093c0-27.085-10.726-53.065-29.841-72.256-19.11-19.191-45.047-30.033-72.132-30.144zM645.969 268.8c-4.983 0-9.924-0.981-14.528-2.889-4.608-1.911-8.794-4.706-12.322-8.235-3.524-3.524-6.323-7.71-8.23-12.318s-2.893-9.545-2.893-14.532v-139.093c-0.055-5.022 0.887-10.005 2.769-14.665 1.882-4.655 4.672-8.892 8.205-12.463 3.529-3.571 7.735-6.409 12.369-8.341 4.638-1.937 9.609-2.931 14.63-2.931h203.947c5.026 0 9.997 0.994 14.635 2.931 4.634 1.933 8.841 4.77 12.369 8.341 3.533 3.571 6.323 7.808 8.205 12.463 1.882 4.659 2.825 9.643 2.765 14.665v139.093c0 10.069-3.998 19.729-11.119 26.85s-16.781 11.123-26.854 11.123h-203.947zM373.331-10.667h-197.12c-27.576 0.111-53.991 11.115-73.49 30.618-19.5 19.499-30.504 45.914-30.616 73.489v709.12c0.112 27.576 11.117 53.991 30.616 73.49s45.914 30.504 73.49 30.616h197.12c27.576-0.112 53.993-11.117 73.492-30.616s30.502-45.914 30.613-73.49v-709.12c-0.111-27.575-11.115-53.99-30.613-73.489-19.499-19.503-45.915-30.507-73.492-30.618zM176.211 842.667c-10.637 0-20.838-4.226-28.36-11.747s-11.747-17.723-11.747-28.36v-709.12c0-10.637 4.226-20.838 11.747-28.361s17.723-11.746 28.36-11.746h197.12c10.637 0 20.838 4.224 28.36 11.746s11.747 17.724 11.747 28.361v709.12c0 10.637-4.225 20.838-11.747 28.36s-17.723 11.747-28.36 11.747h-197.12z" />
<glyph unicode="&#xe91c;" d="M845.653 10.667h-667.307c-27.498 0-53.869 10.923-73.313 30.366s-30.367 45.815-30.367 73.314v329.387c0.113 27.422 11.086 53.687 30.518 73.037 19.431 19.352 45.738 30.217 73.162 30.217h667.307c27.422 0 53.73-10.865 73.161-30.217 19.435-19.349 30.409-45.615 30.519-73.037v-329.387c0-27.499-10.923-53.871-30.366-73.314s-45.815-30.366-73.314-30.366zM842.667 608h-661.333c-28.29 0-55.421 11.238-75.425 31.242s-31.242 47.135-31.242 75.425v64c0 28.29 11.238 55.421 31.242 75.425s47.135 31.242 75.425 31.242h661.333c28.288 0 55.42-11.238 75.426-31.242 20.002-20.004 31.241-47.135 31.241-75.425v-64c0-28.29-11.238-55.421-31.241-75.425-20.006-20.004-47.138-31.242-75.426-31.242z" />
<glyph unicode="&#xe91d;" d="M845.653 10.667h-667.307c-27.498 0-53.869 10.923-73.313 30.366s-30.367 45.815-30.367 73.314v329.387c0.113 27.422 11.086 53.687 30.518 73.037 19.431 19.352 45.738 30.217 73.162 30.217h667.307c27.422 0 53.73-10.865 73.161-30.217 19.435-19.349 30.409-45.615 30.519-73.037v-329.387c0-27.499-10.923-53.871-30.366-73.314s-45.815-30.366-73.314-30.366zM178.347 482.987c-10.45 0-20.479-4.122-27.908-11.469-7.429-7.351-11.66-17.335-11.772-27.785v-329.387c0-10.526 4.18-20.617 11.622-28.058s17.534-11.622 28.058-11.622h667.307c10.526 0 20.617 4.181 28.058 11.622s11.622 17.532 11.622 28.058v329.387c-0.111 10.449-4.343 20.433-11.772 27.785-7.428 7.347-17.459 11.469-27.908 11.469h-667.307zM842.667 608h-661.333c-28.29 0-55.421 11.238-75.425 31.242s-31.242 47.135-31.242 75.425v64c0 28.29 11.238 55.421 31.242 75.425s47.135 31.242 75.425 31.242h661.333c28.288 0 55.42-11.238 75.426-31.242 20.002-20.004 31.241-47.135 31.241-75.425v-64c0-28.29-11.238-55.421-31.241-75.425-20.006-20.004-47.138-31.242-75.426-31.242zM181.333 821.333c-11.316 0-22.168-4.495-30.17-12.497s-12.497-18.854-12.497-30.17v-64c0-11.316 4.495-22.168 12.497-30.17s18.854-12.497 30.17-12.497h661.333c11.315 0 22.17 4.495 30.17 12.497s12.497 18.854 12.497 30.17v64c0 11.316-4.497 22.168-12.497 30.17s-18.854 12.497-30.17 12.497h-661.333z" />
<glyph unicode="&#xe91e;" d="M849.493 10.667h-316.587c-26.517 0-51.959 10.505-70.75 29.218-18.79 18.709-29.406 44.105-29.517 70.622v48.213c0.111 26.517 10.726 51.913 29.517 70.622 18.79 18.714 44.233 29.218 70.75 29.218h316.587c26.479 0 51.874-10.517 70.596-29.244 18.726-18.722 29.244-44.117 29.244-70.596v-48.213c0-26.479-10.517-51.874-29.244-70.596-18.722-18.726-44.117-29.244-70.596-29.244zM849.493 320h-317.013c-26.479 0-51.874 10.517-70.596 29.244-18.726 18.722-29.244 44.117-29.244 70.596v47.36c0.111 26.406 10.679 51.691 29.393 70.322 18.709 18.631 44.041 29.092 70.447 29.091h317.013c26.406 0 51.738-10.46 70.447-29.091 18.714-18.631 29.282-43.916 29.393-70.322v-47.36c0-26.479-10.517-51.874-29.244-70.596-18.722-18.726-44.117-29.244-70.596-29.244zM846.933 630.613h-669.867c-27.197 0.113-53.242 10.996-72.434 30.268s-29.967 45.361-29.966 72.559v49.493c0.112 27.124 10.937 53.104 30.116 72.284s45.16 30.004 72.284 30.116h669.867c27.123-0.112 53.103-10.937 72.282-30.116 19.183-19.18 30.007-45.16 30.118-72.284v-50.347c0-27.197-10.773-53.288-29.965-72.559s-45.239-30.155-72.435-30.268v0.853zM268.8 10.667h-92.587c-26.897 0.111-52.661 10.846-71.68 29.867s-29.754 44.783-29.866 71.68v352.853c0.112 26.897 10.847 52.659 29.866 71.68 19.020 19.019 44.783 29.754 71.68 29.866h92.587c26.932 0 52.761-10.699 71.804-29.743 19.044-19.043 29.743-44.873 29.743-71.804v-352.853c0-13.333-2.627-26.539-7.73-38.861-5.103-12.318-12.583-23.514-22.013-32.943s-20.624-16.909-32.944-22.012c-12.32-5.103-25.525-7.731-38.86-7.731z" />
<glyph unicode="&#xe91f;" d="M849.493 10.667h-316.587c-26.517 0-51.959 10.505-70.75 29.218-18.79 18.709-29.406 44.105-29.517 70.622v48.213c0.111 26.517 10.726 51.913 29.517 70.622 18.79 18.714 44.233 29.218 70.75 29.218h316.587c26.479 0 51.874-10.517 70.596-29.244 18.726-18.722 29.244-44.117 29.244-70.596v-48.213c0-26.479-10.517-51.874-29.244-70.596-18.722-18.726-44.117-29.244-70.596-29.244zM532.907 194.56c-9.545 0-18.705-3.763-25.493-10.47-6.793-6.711-10.662-15.825-10.773-25.37v-48.213c0.111-9.545 3.981-18.658 10.773-25.37 6.788-6.707 15.949-10.47 25.493-10.47h316.587c9.472 0.111 18.522 3.921 25.22 10.62s10.509 15.748 10.62 25.22v48.213c-0.111 9.472-3.921 18.522-10.62 25.22s-15.748 10.509-25.22 10.62h-316.587zM849.493 320h-317.013c-26.479 0-51.874 10.517-70.596 29.244-18.726 18.722-29.244 44.117-29.244 70.596v47.36c0.111 26.406 10.679 51.691 29.393 70.322 18.709 18.631 44.041 29.092 70.447 29.091h317.013c26.406 0 51.738-10.46 70.447-29.091 18.714-18.631 29.282-43.916 29.393-70.322v-47.36c0-26.479-10.517-51.874-29.244-70.596-18.722-18.726-44.117-29.244-70.596-29.244zM532.48 502.613c-9.434 0-18.483-3.716-25.195-10.347-6.707-6.63-10.534-15.637-10.645-25.067v-47.36c0.111-9.472 3.921-18.522 10.62-25.22s15.748-10.509 25.22-10.62h317.013c9.506 0 18.62 3.776 25.344 10.496 6.72 6.724 10.496 15.838 10.496 25.344v47.36c0 4.685-0.93 9.327-2.735 13.653-1.809 4.322-4.454 8.247-7.787 11.541-3.337 3.294-7.287 5.892-11.635 7.646s-8.998 2.628-13.683 2.573h-317.013zM846.933 630.613h-669.867c-27.197 0.113-53.242 10.996-72.434 30.268s-29.967 45.361-29.966 72.559v49.493c0.112 27.124 10.937 53.104 30.116 72.284s45.16 30.004 72.284 30.116h669.867c27.123-0.112 53.103-10.937 72.282-30.116 19.183-19.18 30.007-45.16 30.118-72.284v-50.347c0-27.197-10.773-53.288-29.965-72.559s-45.239-30.155-72.435-30.268v0.853zM177.067 821.333c-10.15-0.111-19.853-4.192-27.030-11.37s-11.259-16.88-11.37-27.030v-50.347c0-10.224 4.032-20.035 11.221-27.305s16.956-11.409 27.179-11.522h669.867c10.223 0.112 19.989 4.253 27.179 11.522s11.221 17.081 11.221 27.305v50.347c-0.111 10.15-4.194 19.853-11.371 27.030s-16.879 11.259-27.029 11.37h-669.867zM268.8 10.667h-92.587c-26.897 0.111-52.661 10.846-71.68 29.867s-29.754 44.783-29.866 71.68v352.853c0.112 26.897 10.847 52.659 29.866 71.68 19.020 19.019 44.783 29.754 71.68 29.866h92.587c26.932 0 52.761-10.699 71.804-29.743 19.044-19.043 29.743-44.873 29.743-71.804v-352.853c0-13.333-2.627-26.539-7.73-38.861-5.103-12.318-12.583-23.514-22.013-32.943s-20.624-16.909-32.944-22.012c-12.32-5.103-25.525-7.731-38.86-7.731zM176.213 502.613c-4.946 0.055-9.855-0.875-14.436-2.743-4.581-1.865-8.743-4.629-12.241-8.128-3.498-3.494-6.262-7.659-8.128-12.241-1.867-4.578-2.799-9.489-2.742-14.434v-352.853c-0.057-4.945 0.875-9.856 2.742-14.434 1.866-4.582 4.63-8.747 8.128-12.241 3.498-3.499 7.66-6.263 12.241-8.128 4.581-1.869 9.489-2.799 14.436-2.743h92.587c4.947-0.055 9.855 0.875 14.436 2.743 4.581 1.865 8.743 4.629 12.241 8.128 3.498 3.494 6.262 7.659 8.128 12.241 1.867 4.578 2.799 9.489 2.742 14.434v352.853c0.057 4.945-0.875 9.856-2.742 14.434-1.866 4.582-4.63 8.747-8.128 12.241-3.498 3.499-7.66 6.263-12.241 8.128-4.581 1.869-9.489 2.799-14.436 2.743h-92.587z" />
<glyph unicode="&#xe920;" d="M715.315 902.396h-406.634c-66.591 0-130.455-26.453-177.542-73.54s-73.54-110.951-73.54-177.542v-406.637c0-66.59 26.453-130.453 73.54-177.54s110.951-73.54 177.542-73.54h406.634c66.594 0 130.458 26.453 177.545 73.54s73.54 110.95 73.54 177.54v406.637c0 66.591-26.453 130.455-73.54 177.542s-110.95 73.54-177.545 73.54z" />
<glyph unicode="&#xe921;" d="M717.227 906.667h-410.453c-67.217 0-131.68-26.702-179.209-74.231s-74.231-111.992-74.231-179.209v-410.453c0-67.217 26.702-131.678 74.231-179.209s111.992-74.231 179.209-74.231h410.453c67.217 0 131.678 26.701 179.209 74.231s74.231 111.991 74.231 179.209v410.453c0 67.217-26.701 131.68-74.231 179.209s-111.991 74.231-179.209 74.231zM306.773 53.333c-50.243 0-98.427 19.959-133.954 55.484-35.527 35.529-55.486 83.712-55.486 133.956v410.453c0 50.243 19.959 98.427 55.486 133.954s83.712 55.486 133.954 55.486h173.227v-789.333h-173.227zM906.667 242.773c0-24.879-4.898-49.51-14.421-72.495-9.519-22.985-23.475-43.87-41.062-61.461-17.591-17.587-38.477-31.543-61.461-41.062-22.985-9.523-47.616-14.421-72.495-14.421h-173.227v789.333h173.227c24.879 0 49.51-4.9 72.495-14.42s43.87-23.474 61.461-41.066c17.587-17.591 31.543-38.475 41.062-61.459 9.523-22.984 14.421-47.618 14.421-72.495v-410.453z" />
<glyph unicode="&#xe922;" d="M376.558 0h-208.372c-27.632 0-54.132 10.978-73.671 30.515s-30.515 46.037-30.515 73.673v687.626c0 27.632 10.977 54.132 30.515 73.671s46.039 30.515 73.671 30.515h208.372c27.632 0 54.132-10.977 73.669-30.515 19.541-19.539 30.515-46.039 30.515-73.671v-687.626c0-27.635-10.974-54.135-30.515-73.673-19.537-19.537-46.037-30.515-73.669-30.515zM855.812 0h-208.371c-27.631 0-54.131 10.978-73.668 30.515-19.541 19.537-30.515 46.037-30.515 73.673v687.626c0 27.632 10.974 54.132 30.515 73.671 19.537 19.538 46.037 30.515 73.668 30.515h208.371c27.635 0 54.135-10.977 73.673-30.515s30.515-46.039 30.515-73.671v-687.626c0-27.635-10.978-54.135-30.515-73.673s-46.037-30.515-73.673-30.515z" />
<glyph unicode="&#xe923;" d="M376.558 0h-208.372c-27.632 0-54.132 10.978-73.671 30.515s-30.515 46.037-30.515 73.673v687.626c0 27.632 10.977 54.132 30.515 73.671s46.039 30.515 73.671 30.515h208.372c27.632 0 54.132-10.977 73.669-30.515 19.541-19.539 30.515-46.039 30.515-73.671v-687.626c0-27.635-10.974-54.135-30.515-73.673-19.537-19.537-46.037-30.515-73.669-30.515zM168.186 833.488c-11.053 0-21.653-4.39-29.468-12.206s-12.206-18.415-12.206-29.468v-687.626c0-11.055 4.39-21.653 12.206-29.47s18.415-12.207 29.468-12.207h208.372c11.053 0 21.653 4.39 29.468 12.207s12.207 18.415 12.207 29.47v687.626c0 11.053-4.391 21.653-12.207 29.468s-18.415 12.206-29.468 12.206h-208.372zM855.812 0h-208.371c-27.631 0-54.131 10.978-73.668 30.515-19.541 19.537-30.515 46.037-30.515 73.673v687.626c0 27.632 10.974 54.132 30.515 73.671 19.537 19.538 46.037 30.515 73.668 30.515h208.371c27.635 0 54.135-10.977 73.673-30.515s30.515-46.039 30.515-73.671v-687.626c0-27.635-10.978-54.135-30.515-73.673s-46.037-30.515-73.673-30.515zM647.441 833.488c-11.051 0-21.653-4.39-29.466-12.206-7.817-7.815-12.207-18.415-12.207-29.468v-687.626c0-11.055 4.39-21.653 12.207-29.47 7.812-7.817 18.415-12.207 29.466-12.207h208.371c11.055 0 21.653 4.39 29.47 12.207s12.207 18.415 12.207 29.47v687.626c0 11.053-4.39 21.653-12.207 29.468s-18.415 12.206-29.47 12.206h-208.371z" />
<glyph unicode="&#xe924;" d="M798.635 102.4h-571.461c-41.545 0.111-81.356 16.666-110.732 46.042s-45.929 69.188-46.041 110.733v373.386c0.111 41.545 16.664 81.356 46.041 110.732s69.187 45.929 110.732 46.040h571.461c41.545-0.111 81.357-16.664 110.733-46.040s45.931-69.188 46.042-110.732v-373.386c-0.111-41.545-16.666-81.357-46.042-110.733s-69.188-45.931-110.733-46.042z" />
<glyph unicode="&#xe925;" d="M801.28 100.267h-578.56c-42.060 0.111-82.366 16.87-112.108 46.613-29.742 29.739-46.5 70.046-46.612 112.107v378.027c0.113 42.060 16.871 82.366 46.612 112.108s70.047 46.5 112.108 46.612h578.56c42.061-0.113 82.368-16.871 112.107-46.612 29.743-29.741 46.502-70.047 46.613-112.108v-378.027c-0.111-42.061-16.87-82.368-46.613-112.107-29.739-29.743-70.046-46.502-112.107-46.613zM222.72 731.733c-25.087-0.112-49.114-10.128-66.853-27.867s-27.755-41.766-27.867-66.853v-378.027c0.112-25.088 10.128-49.114 27.867-66.854 17.739-17.737 41.766-27.755 66.853-27.866h578.56c25.088 0.111 49.114 10.129 66.854 27.866 17.737 17.741 27.755 41.766 27.866 66.854v378.027c-0.111 25.087-10.129 49.114-27.866 66.853-17.741 17.739-41.766 27.755-66.854 27.867h-578.56zM852.907 874.667c-0.111 8.453-3.516 16.528-9.493 22.505s-14.054 9.384-22.507 9.495h-617.813c-8.487 0-16.626-3.372-22.627-9.373s-9.373-14.141-9.373-22.627c0-8.487 3.372-16.626 9.373-22.627s14.141-9.373 22.627-9.373h617.813c8.452 0.111 16.529 3.517 22.507 9.495s9.382 14.053 9.493 22.505zM852.907 21.333c-0.111 8.452-3.516 16.529-9.493 22.507s-14.054 9.382-22.507 9.493h-617.813c-8.487 0-16.626-3.371-22.627-9.374-6.001-5.999-9.373-14.14-9.373-22.626s3.372-16.627 9.373-22.626c6.001-6.003 14.141-9.374 22.627-9.374h617.813c8.452 0.111 16.529 3.516 22.507 9.493s9.382 14.054 9.493 22.507z" />
<glyph unicode="&#xe926;" d="M373.333-10.667h-213.333c-28.29 0-55.421 11.238-75.425 31.241-20.004 20.006-31.242 47.138-31.242 75.426v704c0 28.29 11.238 55.421 31.242 75.425s47.135 31.242 75.425 31.242h213.333c28.29 0 55.42-11.238 75.426-31.242 20.002-20.004 31.241-47.135 31.241-75.425v-704c0-28.288-11.238-55.42-31.241-75.426-20.006-20.002-47.136-31.241-75.426-31.241zM864 288h-213.333c-28.288 0-55.42 11.238-75.426 31.241-20.002 20.006-31.241 47.138-31.241 75.426v405.333c0 28.29 11.238 55.421 31.241 75.425 20.006 20.004 47.138 31.242 75.426 31.242h213.333c28.288 0 55.42-11.238 75.426-31.242 20.002-20.004 31.241-47.135 31.241-75.425v-405.333c0-28.288-11.238-55.42-31.241-75.426-20.006-20.002-47.138-31.241-75.426-31.241z" />
<glyph unicode="&#xe927;" d="M373.333-10.667h-213.333c-28.29 0-55.421 11.238-75.425 31.241-20.004 20.006-31.242 47.138-31.242 75.426v704c0 28.29 11.238 55.421 31.242 75.425s47.135 31.242 75.425 31.242h213.333c28.29 0 55.42-11.238 75.426-31.242 20.002-20.004 31.241-47.135 31.241-75.425v-704c0-28.288-11.238-55.42-31.241-75.426-20.006-20.002-47.136-31.241-75.426-31.241zM160 842.667c-11.316 0-22.168-4.495-30.17-12.497s-12.497-18.854-12.497-30.17v-704c0-11.315 4.495-22.17 12.497-30.17s18.854-12.497 30.17-12.497h213.333c11.316 0 22.168 4.497 30.17 12.497s12.497 18.854 12.497 30.17v704c0 11.316-4.495 22.168-12.497 30.17s-18.854 12.497-30.17 12.497h-213.333zM864 288h-213.333c-28.288 0-55.42 11.238-75.426 31.241-20.002 20.006-31.241 47.138-31.241 75.426v405.333c0 28.29 11.238 55.421 31.241 75.425 20.006 20.004 47.138 31.242 75.426 31.242h213.333c28.288 0 55.42-11.238 75.426-31.242 20.002-20.004 31.241-47.135 31.241-75.425v-405.333c0-28.288-11.238-55.42-31.241-75.426-20.006-20.002-47.138-31.241-75.426-31.241zM650.667 842.667c-11.315 0-22.17-4.495-30.17-12.497s-12.497-18.854-12.497-30.17v-405.333c0-11.315 4.497-22.17 12.497-30.17s18.854-12.497 30.17-12.497h213.333c11.315 0 22.17 4.497 30.17 12.497s12.497 18.854 12.497 30.17v405.333c0 11.316-4.497 22.168-12.497 30.17s-18.854 12.497-30.17 12.497h-213.333z" />
<glyph unicode="&#xe928;" d="M855.812 479.258h-687.626c-27.632 0-54.132 10.974-73.671 30.515-19.538 19.537-30.515 46.037-30.515 73.669v208.372c0 27.632 10.977 54.132 30.515 73.671s46.039 30.515 73.671 30.515h687.626c27.635 0 54.135-10.977 73.673-30.515s30.515-46.039 30.515-73.671v-208.372c0-27.632-10.978-54.132-30.515-73.669-19.537-19.541-46.037-30.515-73.673-30.515zM855.812 0h-687.626c-27.632 0-54.132 10.978-73.671 30.515s-30.515 46.037-30.515 73.673v208.371c0 27.631 10.977 54.131 30.515 73.668 19.539 19.541 46.039 30.515 73.671 30.515h687.626c27.635 0 54.135-10.974 73.673-30.515 19.537-19.537 30.515-46.037 30.515-73.668v-208.371c0-27.635-10.978-54.135-30.515-73.673s-46.037-30.515-73.673-30.515z" />
<glyph unicode="&#xe929;" d="M855.812 479.258h-687.626c-27.632 0-54.132 10.974-73.671 30.515-19.538 19.537-30.515 46.037-30.515 73.669v208.372c0 27.632 10.977 54.132 30.515 73.671s46.039 30.515 73.671 30.515h687.626c27.635 0 54.135-10.977 73.673-30.515s30.515-46.039 30.515-73.671v-208.372c0-27.632-10.978-54.132-30.515-73.669-19.537-19.541-46.037-30.515-73.673-30.515zM168.186 833.488c-11.053 0-21.653-4.39-29.468-12.206s-12.206-18.415-12.206-29.468v-208.372c0-11.053 4.39-21.653 12.206-29.468s18.415-12.207 29.468-12.207h687.626c11.055 0 21.653 4.391 29.47 12.207s12.207 18.415 12.207 29.468v208.372c0 11.053-4.39 21.653-12.207 29.468s-18.415 12.206-29.47 12.206h-687.626zM855.812 0h-687.626c-27.632 0-54.132 10.978-73.671 30.515s-30.515 46.037-30.515 73.673v208.371c0 27.631 10.977 54.131 30.515 73.668 19.539 19.541 46.039 30.515 73.671 30.515h687.626c27.635 0 54.135-10.974 73.673-30.515 19.537-19.537 30.515-46.037 30.515-73.668v-208.371c0-27.635-10.978-54.135-30.515-73.673s-46.037-30.515-73.673-30.515zM168.186 354.231c-11.053 0-21.653-4.39-29.468-12.207-7.816-7.812-12.206-18.415-12.206-29.466v-208.371c0-11.055 4.39-21.653 12.206-29.47s18.415-12.207 29.468-12.207h687.626c11.055 0 21.653 4.39 29.47 12.207s12.207 18.415 12.207 29.47v208.371c0 11.051-4.39 21.653-12.207 29.466-7.817 7.817-18.415 12.207-29.47 12.207h-687.626z" />
<glyph unicode="&#xe92a;" d="M824.939 730.153v45.903c0 33.507-13.312 65.642-37.005 89.335s-55.829 37.004-89.335 37.004h-373.964c-33.507 0-65.642-13.311-89.335-37.004s-37.004-55.828-37.004-89.335v-45.903c-38.339-4.084-73.779-22.312-99.399-51.124s-39.58-66.141-39.153-104.694v-252.68c-0.387-38.814 13.807-76.365 39.776-105.216 25.968-28.855 61.818-46.912 100.461-50.603v-45.901c0-33.506 13.311-65.643 37.004-89.335s55.828-37.005 89.335-37.005h375.649c33.506 0 65.643 13.312 89.335 37.005s37.005 55.829 37.005 89.335v45.901c38.033 4.471 73.062 22.869 98.338 51.644 25.271 28.77 38.997 65.882 38.528 104.175v252.68c0.388 38.816-13.807 76.364-39.778 105.218-25.967 28.853-61.815 46.911-100.459 50.601z" />
<glyph unicode="&#xe92b;" d="M827.43 732.807v46.334c0 33.822-13.436 66.258-37.35 90.174s-56.354 37.351-90.176 37.351h-377.474c-33.822 0-66.259-13.436-90.174-37.351s-37.351-56.352-37.351-90.174v-46.334c-38.699-4.122-74.472-22.521-100.332-51.604s-39.951-66.761-39.521-105.677v-255.052c-0.39-39.181 13.937-77.082 40.149-106.206s62.399-47.351 101.404-51.076v-46.332c0-33.822 13.436-66.261 37.351-90.176s56.352-37.35 90.174-37.35h379.174c33.822 0 66.261 13.436 90.176 37.35s37.35 56.354 37.35 90.176v46.332c38.391 4.514 73.754 23.083 99.264 52.126s39.364 66.505 38.891 105.156v255.052c0.388 39.181-13.939 77.081-40.149 106.205-26.214 29.124-62.4 47.351-101.406 51.076zM260.367 779.141c0.111 16.426 6.686 32.147 18.301 43.762s27.336 18.189 43.762 18.301h379.177c16.427-0.111 32.145-6.686 43.759-18.301 11.618-11.615 18.193-27.336 18.304-43.762v-42.508h-503.302v42.508zM763.669 116.86c-0.111-16.427-6.686-32.149-18.304-43.763-11.614-11.614-27.332-18.189-43.759-18.3h-379.177c-16.426 0.111-32.147 6.686-43.762 18.3s-18.189 27.337-18.301 43.763v44.634h503.302v-44.634zM905.22 320.474c-0.111-24.768-10.001-48.491-27.516-66.001-17.51-17.515-41.233-27.405-66.001-27.516h-597.245c-12.443-0.226-24.808 2.022-36.375 6.618-11.567 4.591-22.106 11.439-31.004 20.139s-15.98 19.085-20.832 30.545c-4.852 11.46-7.379 23.77-7.433 36.215v255.052c-0.173 12.588 2.186 25.083 6.937 36.741s11.796 22.243 20.718 31.126c8.922 8.882 19.538 15.881 31.217 20.579s24.185 7.002 36.772 6.773h599.37c24.691-0.668 48.128-11.035 65.233-28.856s26.505-41.663 26.159-66.362v-255.052z" />
<glyph unicode="&#xe92c;" d="M935.386 89.775h-69.623v437.538c-0.124 30.237-12.224 59.193-33.647 80.529-21.427 21.336-50.432 33.315-80.666 33.315h-101.146c-30.191 0-59.149-11.994-80.499-33.344s-33.344-50.307-33.344-80.5v-437.538h-71.505v672.753c-0.119 30.074-12.092 58.889-33.314 80.198-21.22 21.31-49.984 33.398-80.057 33.646h-101.142c-15.029 0.124-29.934-2.729-43.855-8.394s-26.582-14.032-37.253-24.615c-10.671-10.584-19.141-23.176-24.921-37.050s-8.755-28.755-8.755-43.785v-672.753h-47.043c-9.357 0-18.331-3.721-24.948-10.334-6.617-6.618-10.334-15.595-10.334-24.951s3.717-18.33 10.334-24.947c6.617-6.618 15.591-10.334 24.948-10.334h846.77c9.357 0 18.33 3.716 24.947 10.334s10.334 15.59 10.334 24.947c0 9.357-3.716 18.334-10.334 24.951-6.618 6.613-15.59 10.334-24.947 10.334z" />
<glyph unicode="&#xe92d;" d="M935.386 89.775h-69.623v437.538c-0.124 30.237-12.224 59.193-33.647 80.529-21.427 21.336-50.432 33.315-80.666 33.315h-101.146c-30.191 0-59.149-11.994-80.499-33.344s-33.344-50.307-33.344-80.5v-437.538h-71.505v672.753c-0.119 30.074-12.092 58.889-33.314 80.198-21.22 21.31-49.984 33.398-80.057 33.646h-101.142c-15.029 0.124-29.934-2.729-43.855-8.394s-26.582-14.032-37.253-24.615c-10.671-10.584-19.141-23.176-24.921-37.050s-8.755-28.755-8.755-43.785v-672.753h-47.043c-9.357 0-18.331-3.721-24.948-10.334-6.617-6.618-10.334-15.595-10.334-24.951s3.717-18.33 10.334-24.947c6.617-6.618 15.591-10.334 24.948-10.334h846.77c9.357 0 18.33 3.716 24.947 10.334s10.334 15.59 10.334 24.947c0 9.357-3.716 18.334-10.334 24.951-6.618 6.613-15.59 10.334-24.947 10.334zM205.281 89.775v672.753c0 11.479 4.56 22.487 12.676 30.603s19.125 12.676 30.603 12.676h103.024c11.522 0.001 22.579-4.544 30.77-12.647s12.855-19.11 12.979-30.632v-672.753h-190.053zM605.146 89.775v437.538c0 11.479 4.557 22.487 12.676 30.604 8.115 8.116 19.123 12.676 30.601 12.676h101.141c11.524 0.001 22.583-4.544 30.771-12.647 8.192-8.103 12.855-19.11 12.979-30.633v-437.538h-188.169z" />
<glyph unicode="&#xe92e;" d="M74.667 643.239v-390.042c0.115-64.286 25.704-125.909 71.162-171.366s107.079-71.044 171.367-71.159h389.608c64.286 0.115 125.909 25.702 171.366 71.159s71.044 107.081 71.159 171.366v389.608c-0.115 64.288-25.702 125.909-71.159 171.367s-107.081 71.047-171.366 71.162h-389.608c-64.212-0.114-125.769-25.644-171.214-71.008s-71.085-106.874-71.314-171.087z" />
<glyph unicode="&#xe92f;" d="M107.206 523.925c-8.63 0-16.907 3.43-23.009 9.533s-9.53 14.379-9.53 23.009v86.772c0.229 64.212 25.869 125.722 71.314 171.087s107.002 70.894 171.214 71.008h83.301c8.63 0 16.907-3.428 23.009-9.53s9.532-14.379 9.532-23.009c0-8.63-3.43-16.906-9.532-23.009s-14.379-9.53-23.009-9.53h-83.301c-47.063 0-92.198-18.696-125.476-51.974s-51.974-78.413-51.974-125.476v-86.772c-0.224-8.519-3.737-16.621-9.803-22.607s-14.215-9.39-22.736-9.501zM439.108 43.209c0 8.631-3.426 16.909-9.527 23.010-6.104 6.101-14.38 9.532-23.011 9.532h-89.375c-47.063 0-92.198 18.692-125.476 51.972s-51.974 78.413-51.974 125.474v86.771c0 8.631-3.428 16.909-9.53 23.010s-14.379 9.532-23.009 9.532c-8.63 0-16.907-3.43-23.009-9.532s-9.53-14.379-9.53-23.010v-86.771c0.115-64.286 25.704-125.909 71.162-171.366s107.079-71.044 171.367-71.159h89.375c4.289-0.060 8.547 0.742 12.521 2.355 3.974 1.617 7.584 4.011 10.618 7.044s5.427 6.643 7.044 10.62c1.613 3.972 2.415 8.23 2.355 12.518zM949.329 253.197v92.847c0 8.631-3.426 16.909-9.527 23.010-6.106 6.101-14.383 9.532-23.010 9.532-8.631 0-16.909-3.43-23.010-9.532s-9.532-14.379-9.532-23.010v-92.847c0-47.061-18.692-92.194-51.972-125.474s-78.413-51.972-125.474-51.972h-83.302c-8.631 0-16.905-3.43-23.010-9.532-6.101-6.101-9.527-14.379-9.527-23.010s3.426-16.905 9.527-23.010c6.106-6.101 14.379-9.527 23.010-9.527h83.302c64.286 0.115 125.909 25.702 171.366 71.159s71.044 107.081 71.159 171.366zM949.329 563.409v79.396c-0.115 64.288-25.702 125.909-71.159 171.367s-107.081 71.047-171.366 71.162h-89.378c-8.627 0-16.905-3.428-23.006-9.53-6.106-6.103-9.532-14.379-9.532-23.009s3.426-16.906 9.532-23.009c6.101-6.102 14.379-9.53 23.006-9.53h89.378c47.061 0 92.194-18.696 125.474-51.974s51.972-78.413 51.972-125.476v-79.396c0-8.63 3.43-16.907 9.532-23.009s14.379-9.532 23.010-9.532c8.627 0 16.905 3.43 23.010 9.532 6.101 6.103 9.527 14.379 9.527 23.009z" />
<glyph unicode="&#xe930;" d="M864-10.667h-704c-28.29 0-55.421 11.238-75.425 31.241-20.004 20.006-31.242 47.138-31.242 75.426v213.333c0 28.288 11.238 55.42 31.242 75.426 20.004 20.002 47.135 31.241 75.425 31.241h704c28.288 0 55.42-11.238 75.426-31.241 20.002-20.006 31.241-47.138 31.241-75.426v-213.333c0-28.288-11.238-55.42-31.241-75.426-20.006-20.002-47.138-31.241-75.426-31.241zM565.333 480h-405.333c-28.29 0-55.421 11.238-75.425 31.241-20.004 20.006-31.242 47.136-31.242 75.426v213.333c0 28.29 11.238 55.421 31.242 75.425s47.135 31.242 75.425 31.242h405.333c28.288 0 55.42-11.238 75.426-31.242 20.002-20.004 31.241-47.135 31.241-75.425v-213.333c0-28.29-11.238-55.42-31.241-75.426-20.006-20.002-47.138-31.241-75.426-31.241z" />
<glyph unicode="&#xe931;" d="M864-10.667h-704c-28.29 0-55.421 11.238-75.425 31.241-20.004 20.006-31.242 47.138-31.242 75.426v213.333c0 28.288 11.238 55.42 31.242 75.426 20.004 20.002 47.135 31.241 75.425 31.241h704c28.288 0 55.42-11.238 75.426-31.241 20.002-20.006 31.241-47.138 31.241-75.426v-213.333c0-28.288-11.238-55.42-31.241-75.426-20.006-20.002-47.138-31.241-75.426-31.241zM160 352c-11.316 0-22.168-4.497-30.17-12.497s-12.497-18.854-12.497-30.17v-213.333c0-11.315 4.495-22.17 12.497-30.17s18.854-12.497 30.17-12.497h704c11.315 0 22.17 4.497 30.17 12.497s12.497 18.854 12.497 30.17v213.333c0 11.315-4.497 22.17-12.497 30.17s-18.854 12.497-30.17 12.497h-704zM565.333 480h-405.333c-28.29 0-55.421 11.238-75.425 31.241-20.004 20.006-31.242 47.136-31.242 75.426v213.333c0 28.29 11.238 55.421 31.242 75.425s47.135 31.242 75.425 31.242h405.333c28.288 0 55.42-11.238 75.426-31.242 20.002-20.004 31.241-47.135 31.241-75.425v-213.333c0-28.29-11.238-55.42-31.241-75.426-20.006-20.002-47.138-31.241-75.426-31.241zM160 842.667c-11.316 0-22.168-4.495-30.17-12.497s-12.497-18.854-12.497-30.17v-213.333c0-11.316 4.495-22.168 12.497-30.17s18.854-12.497 30.17-12.497h405.333c11.315 0 22.17 4.495 30.17 12.497s12.497 18.854 12.497 30.17v213.333c0 11.316-4.497 22.168-12.497 30.17s-18.854 12.497-30.17 12.497h-405.333z" />
<glyph unicode="&#xe932;" d="M798.635 102.4h-571.461c-41.545 0.111-81.356 16.666-110.732 46.042s-45.929 69.188-46.041 110.733v373.386c0.111 41.545 16.664 81.356 46.041 110.732s69.187 45.929 110.732 46.040h571.461c41.545-0.111 81.357-16.664 110.733-46.040s45.931-69.188 46.042-110.732v-373.386c-0.111-41.545-16.666-81.357-46.042-110.733s-69.188-45.931-110.733-46.042z" />
<glyph unicode="&#xe933;" d="M801.28 100.267h-578.56c-42.060 0.111-82.366 16.87-112.108 46.613-29.742 29.739-46.5 70.046-46.612 112.107v378.027c0.113 42.060 16.871 82.366 46.612 112.108s70.047 46.5 112.108 46.612h578.56c42.061-0.113 82.368-16.871 112.107-46.612 29.743-29.741 46.502-70.047 46.613-112.108v-378.027c-0.111-42.061-16.87-82.368-46.613-112.107-29.739-29.743-70.046-46.502-112.107-46.613zM222.72 731.733c-25.087-0.112-49.114-10.128-66.853-27.867s-27.755-41.766-27.867-66.853v-378.027c0.112-25.088 10.128-49.114 27.867-66.854 17.739-17.737 41.766-27.755 66.853-27.866h578.56c25.088 0.111 49.114 10.129 66.854 27.866 17.737 17.741 27.755 41.766 27.866 66.854v378.027c-0.111 25.087-10.129 49.114-27.866 66.853-17.741 17.739-41.766 27.755-66.854 27.867h-578.56zM852.907 874.667c-0.111 8.453-3.516 16.528-9.493 22.505s-14.054 9.384-22.507 9.495h-617.813c-8.487 0-16.626-3.372-22.627-9.373s-9.373-14.141-9.373-22.627c0-8.487 3.372-16.626 9.373-22.627s14.141-9.373 22.627-9.373h617.813c8.452 0.111 16.529 3.517 22.507 9.495s9.382 14.053 9.493 22.505zM852.907 21.333c-0.111 8.452-3.516 16.529-9.493 22.507s-14.054 9.382-22.507 9.493h-617.813c-8.487 0-16.626-3.371-22.627-9.374-6.001-5.999-9.373-14.14-9.373-22.626s3.372-16.627 9.373-22.626c6.001-6.003 14.141-9.374 22.627-9.374h617.813c8.452 0.111 16.529 3.516 22.507 9.493s9.382 14.054 9.493 22.507z" />
<glyph unicode="&#xe934;" d="M715.315 902.396h-406.634c-66.591 0-130.455-26.453-177.542-73.54s-73.54-110.951-73.54-177.542v-406.637c0-66.59 26.453-130.453 73.54-177.54s110.951-73.54 177.542-73.54h406.634c66.594 0 130.458 26.453 177.545 73.54s73.54 110.95 73.54 177.54v406.637c0 66.591-26.453 130.455-73.54 177.542s-110.95 73.54-177.545 73.54z" />
<glyph unicode="&#xe935;" d="M717.227 906.667h-410.453c-67.217 0-131.68-26.702-179.209-74.231s-74.231-111.992-74.231-179.209v-410.453c0-67.217 26.702-131.678 74.231-179.209s111.992-74.231 179.209-74.231h410.453c67.217 0 131.678 26.701 179.209 74.231s74.231 111.991 74.231 179.209v410.453c0 67.217-26.701 131.68-74.231 179.209s-111.991 74.231-179.209 74.231zM306.773 53.333c-50.243 0-98.427 19.959-133.954 55.484-35.527 35.529-55.486 83.712-55.486 133.956v410.453c0 50.243 19.959 98.427 55.486 133.954s83.712 55.486 133.954 55.486h45.227v-789.333h-45.227zM906.667 242.773c0-24.879-4.898-49.51-14.421-72.495-9.519-22.985-23.475-43.87-41.062-61.461-17.591-17.587-38.477-31.543-61.461-41.062-22.985-9.523-47.616-14.421-72.495-14.421h-301.227v789.333h301.227c24.879 0 49.51-4.9 72.495-14.42s43.87-23.474 61.461-41.066c17.587-17.591 31.543-38.475 41.062-61.459 9.523-22.984 14.421-47.618 14.421-72.495v-410.453z" />
<glyph unicode="&#xe936;" d="M853.457 864c28.258-0.005 55.356-11.229 75.337-31.209 19.977-19.98 31.202-47.078 31.206-75.333v-618.915c-0.004-28.258-11.23-55.356-31.206-75.337-19.981-19.977-47.078-31.202-75.337-31.206h-682.915c-28.255 0.004-55.354 11.23-75.333 31.206-19.98 19.981-31.204 47.078-31.209 75.337v618.915c0.005 28.255 11.229 55.354 31.209 75.333s47.078 31.204 75.333 31.209h682.915zM128 224v-85.457c0.088-11.255 4.582-22.042 12.542-30.003 7.959-7.957 18.745-12.45 30-12.54h53.458v128h-96zM288 416v-320h448v320h-448zM800 224v-128h53.457c11.255 0.090 22.042 4.582 30.003 12.54 7.957 7.962 12.45 18.748 12.54 30.003v85.457h-96zM128 416v-128h96v128h-96zM800 416v-128h96v128h-96zM128 608v-128h96v128h-96zM288 800v-320h448v320h-448zM800 608v-128h96v128h-96zM170.542 800c-11.255-0.088-22.041-4.582-30-12.542s-12.454-18.745-12.542-30v-85.458h96v128h-53.458zM800 800v-128h96v85.458c-0.090 11.255-4.582 22.041-12.54 30-7.962 7.959-18.748 12.454-30.003 12.542h-53.457z" />
<glyph unicode="&#xe937;" d="M853.457 832c41.165-0.010 74.534-33.378 74.543-74.542v-618.915c-0.009-41.165-33.378-74.534-74.543-74.543h-682.915c-41.164 0.009-74.532 33.378-74.542 74.543v618.915c0.010 41.164 33.378 74.532 74.542 74.542h682.915z" />
<glyph unicode="&#xe938;" d="M558.707 896.083c20.988 0 41.126-8.317 56-23.125 7.906-7.514 14.242-16.537 18.586-26.542 4.343-10.006 6.618-20.801 6.707-31.708-0.354-18.372-7.159-36.045-19.209-49.917l208-208c15.181 12.36 34.406 18.695 53.961 17.75 19.546-0.945 38.042-9.111 51.955-22.875 7.855-7.402 14.14-16.317 18.458-26.21 4.318-9.886 6.622-20.544 6.711-31.33 0.090-10.795-2.014-21.5-6.17-31.458-4.151-9.963-10.308-18.97-18.039-26.5l-192-192c-7.347-7.415-16.077-13.316-25.711-17.335s-19.977-6.080-30.413-6.084c-10.445 0-20.821 2.065-30.46 6.084-9.634 4.019-18.364 9.916-25.707 17.335l-1.92 1.916c-13.76 13.909-21.926 32.414-22.874 51.959-0.947 19.55 5.389 38.78 17.749 53.956l-80.333 80.96-76.459-76.459 23.334-23.377c5.961-5.995 9.331-14.127 9.331-22.583-0.004-8.448-3.375-16.55-9.331-22.541l-273.251-272.96c-5.996-5.956-14.129-9.289-22.583-9.289-8.45 0-16.548 3.337-22.542 9.289l-91.875 91.503c-2.965 2.987-5.283 6.558-6.875 10.458s-2.4 8.081-2.375 12.292c-0.023 4.207 0.784 8.397 2.375 12.292 1.59 3.887 3.919 7.433 6.875 10.415l273.292 273.293c2.99 2.965 6.56 5.282 10.458 6.874 3.891 1.587 8.048 2.398 12.25 2.377 8.391-0.038 16.457-3.345 22.417-9.25l23.375-23.377 75.832 76.169-82.249 82.249c-13.536-10.587-30.191-16.46-47.375-16.666-20.971-0.018-41.117 8.267-56 23.042l-1.917 1.917c-7.382 7.371-13.213 16.156-17.208 25.792-3.992 9.631-6.041 19.949-6.042 30.375 0 10.432 2.046 20.78 6.042 30.417 3.994 9.628 9.833 18.384 17.208 25.75l191.999 192c14.869 14.808 35.017 23.121 56 23.125zM148.5 128l46.375-45.124 228.167 226.581-46.417 46.711-228.125-228.169zM880.333 512.96c-1.92-0.030-3.823-0.439-5.581-1.212-1.754-0.764-3.349-1.86-4.668-3.247l-193.916-193.958c-1.425-1.421-2.56-3.102-3.337-4.958-0.772-1.869-1.165-3.895-1.165-5.918 0-2.018 0.393-4.011 1.165-5.875 0.777-1.865 1.903-3.575 3.337-5.001l1.916-1.916c1.399-1.421 3.076-2.564 4.915-3.332 1.835-0.768 3.806-1.165 5.794-1.169 1.993 0 3.989 0.397 5.833 1.169 1.839 0.768 3.516 1.911 4.915 3.332l192 192c1.988 1.182 3.678 2.837 4.915 4.791s1.993 4.194 2.21 6.498c0.213 2.304-0.111 4.642-0.96 6.793s-2.223 4.049-3.955 5.585c-1.664 1.95-3.729 3.563-6.042 4.663-2.308 1.097-4.821 1.69-7.377 1.754zM462.084 605.125l207.040-207.041 113.916 113.916-207.040 207.042-113.916-113.917zM557.124 832c-2.018-0.166-3.985-0.757-5.747-1.75-1.771-0.994-3.311-2.359-4.501-4l-192.001-192c-1.459-1.373-2.62-3.037-3.417-4.875-0.797-1.844-1.208-3.867-1.208-5.875 0.003-2.001 0.415-3.996 1.208-5.833 0.797-1.839 1.958-3.502 3.417-4.875v-1.917h0.667c1.522-1.547 3.352-2.755 5.375-3.541 2.036-0.788 4.237-1.163 6.417-1.042s4.313 0.741 6.25 1.75c1.933 1.009 3.654 2.41 5 4.125l191.998 192c2.79 2.942 4.373 6.823 4.459 10.875 0.009 2.017-0.397 4.009-1.165 5.875-0.768 1.862-1.873 3.572-3.294 5-1.724 1.847-3.819 3.332-6.123 4.375-2.308 1.044-4.804 1.631-7.334 1.708z" />
<glyph unicode="&#xe939;" d="M468.002 310.793l-273.127-273.126-91.625 91.627 273.125 273.122 91.627-91.622zM557.918 863.917c12.51 0 24.538-4.893 33.459-13.667l1.916-1.917c8.772-8.918 13.709-20.947 13.709-33.458-0.004-12.504-4.945-24.5-13.709-33.417l-17.293-17.292 252.501-252.167 16.956 16.96c4.369 4.414 9.562 7.937 15.292 10.332 5.739 2.394 11.913 3.623 18.125 3.625 6.221 0 12.386-1.231 18.125-3.625 5.743-2.396 10.961-5.912 15.334-10.332l1.916-1.92c4.557-4.535 8.132-9.958 10.543-15.915 2.406-5.956 3.618-12.331 3.499-18.752s-1.54-12.762-4.164-18.624c-2.633-5.862-6.447-11.136-11.166-15.501l-192-192c-8.917-8.768-20.911-13.705-33.417-13.709-12.514 0-24.542 4.937-33.459 13.709l-1.916 1.92c-4.42 4.373-7.94 9.591-10.334 15.33-2.389 5.73-3.622 11.878-3.627 18.086 0 6.212 1.233 12.386 3.627 18.125s5.909 10.957 10.334 15.33l16.956 16.96-250.874 254.417-16.958-16.958c-4.374-4.422-9.593-7.938-15.333-10.333s-11.906-3.625-18.125-3.625c-6.21 0.002-12.351 1.235-18.083 3.625-5.74 2.396-10.959 5.912-15.334 10.333l-1.917 1.917c-4.417 4.37-7.938 9.559-10.333 15.292-2.394 5.737-3.624 11.908-3.625 18.125 0 6.22 1.229 12.385 3.625 18.125s5.912 10.959 10.333 15.333l192.001 192c8.913 8.765 20.911 13.664 33.417 13.667z" />
<glyph unicode="&#xe93a;" d="M736 864h-384c-33.948 0-66.505-13.486-90.51-37.49s-37.49-56.562-37.49-90.51v-576c0-33.946 13.486-66.505 37.49-90.509s56.562-37.491 90.51-37.491h71.36c9.067-0.529 17.975 2.534 24.802 8.521 6.827 5.99 11.021 14.421 11.678 23.479v147.52c0.247 10.295 2.526 20.442 6.694 29.858 4.173 9.421 10.159 17.92 17.621 25.024 7.458 7.104 16.243 12.663 25.852 16.371s19.857 5.483 30.153 5.227h7.68c10.295 0.256 20.544-1.519 30.153-5.227s18.394-9.267 25.852-16.371c7.462-7.104 13.449-15.603 17.621-25.024 4.169-9.417 6.447-19.563 6.694-29.858v-147.52c0.653-8.828 4.668-17.067 11.217-23.019 6.549-5.956 15.134-9.169 23.983-8.981h72.64c33.946 0 66.505 13.487 90.509 37.491s37.491 56.563 37.491 90.509v576c0 33.948-13.487 66.505-37.491 90.51s-56.563 37.49-90.509 37.49z" />
<glyph unicode="&#xe93b;" d="M784 896c29.705 0 58.206-11.788 79.206-32.791 21.005-21.004 32.794-49.504 32.794-79.209v-672c0-29.705-11.789-58.206-32.794-79.206-21.001-21.005-49.502-32.794-79.206-32.794h-120.623c-17.331-0.179-34.078 6.426-46.626 18.377-12.54 11.947-19.921 28.314-20.582 45.623v147.499c-0.247 6.093-1.694 12.096-4.254 17.626-2.56 5.538-6.217 10.534-10.705 14.669-4.484 4.122-9.737 7.322-15.458 9.417-5.73 2.095-11.823 3.046-17.92 2.79h-7.663c-6.097 0.256-12.19-0.695-17.92-2.79-5.722-2.095-10.974-5.295-15.458-9.417-4.489-4.134-8.145-9.131-10.705-14.669-2.56-5.53-4.006-11.533-4.254-17.626v-147.499c-0.666-17.31-8.043-33.677-20.582-45.623-12.548-11.951-29.295-18.556-46.624-18.377h-120.625c-29.704 0-58.204 11.789-79.209 32.794-21.004 21.001-32.791 49.502-32.791 79.206v672c0 29.704 11.788 58.204 32.791 79.209s49.504 32.791 79.209 32.791h480zM304 832c-12.73 0-24.957-5.040-33.958-14.042s-14.042-21.228-14.042-33.958v-672c-0.215-6.438 0.851-12.864 3.167-18.876 2.316-6.007 5.856-11.499 10.333-16.124 4.473-4.617 9.83-8.286 15.75-10.79 5.93-2.513 12.309-3.797 18.75-3.793h120.625c0.625-0.043 1.272 0.055 1.833 0.333 0.562 0.282 1.032 0.725 1.373 1.25v147.499c0.589 29.252 12.749 57.092 33.792 77.419 21.047 20.326 49.289 31.509 78.545 31.083h7.663c29.257 0.427 57.498-10.756 78.545-31.083 21.043-20.326 33.203-48.166 33.792-77.419v-145.916c0.337-0.521 0.819-0.93 1.374-1.207 0.563-0.282 1.203-0.418 1.835-0.375h120.623c12.732 0 24.956 5.039 33.958 14.042s14.042 21.227 14.042 33.958v672c0 12.73-5.039 24.957-14.042 33.958s-21.227 14.042-33.958 14.042h-480zM384 544c8.487 0 16.624-3.374 22.625-9.375s9.375-14.138 9.375-22.625v-64c0-8.486-3.374-16.623-9.375-22.626-6.001-5.999-14.138-9.374-22.625-9.374s-16.624 3.375-22.625 9.374c-6.001 6.003-9.375 14.14-9.375 22.626v64c0 8.486 3.374 16.623 9.375 22.625s14.138 9.375 22.625 9.375zM544 544c8.486 0 16.623-3.374 22.626-9.375 5.999-6.002 9.374-14.138 9.374-22.625v-64c0-8.486-3.375-16.623-9.374-22.626-6.003-5.999-14.14-9.374-22.626-9.374s-16.623 3.375-22.626 9.374c-5.999 6.003-9.374 14.14-9.374 22.626v64c0 8.486 3.375 16.623 9.374 22.625 6.003 6.001 14.14 9.375 22.626 9.375zM704 544c8.486 0 16.623-3.374 22.626-9.375 5.999-6.002 9.374-14.138 9.374-22.625v-64c0-8.486-3.375-16.623-9.374-22.626-6.003-5.999-14.14-9.374-22.626-9.374s-16.623 3.375-22.626 9.374c-5.999 6.003-9.374 14.14-9.374 22.626v64c0 8.486 3.375 16.623 9.374 22.625 6.003 6.001 14.14 9.375 22.626 9.375zM384 736c8.487 0 16.624-3.374 22.625-9.375s9.375-14.138 9.375-22.625v-64c0-8.487-3.374-16.624-9.375-22.625s-14.138-9.375-22.625-9.375c-8.487 0-16.624 3.374-22.625 9.375s-9.375 14.138-9.375 22.625v64c0 8.487 3.374 16.624 9.375 22.625s14.138 9.375 22.625 9.375zM544 736c8.486 0 16.623-3.374 22.626-9.375 5.999-6.001 9.374-14.138 9.374-22.625v-64c0-8.487-3.375-16.624-9.374-22.625-6.003-6.001-14.14-9.375-22.626-9.375s-16.623 3.374-22.626 9.375c-5.999 6.001-9.374 14.138-9.374 22.625v64c0 8.487 3.375 16.624 9.374 22.625 6.003 6.001 14.14 9.375 22.626 9.375zM704 736c8.486 0 16.623-3.374 22.626-9.375 5.999-6.001 9.374-14.138 9.374-22.625v-64c0-8.487-3.375-16.624-9.374-22.625-6.003-6.001-14.14-9.375-22.626-9.375s-16.623 3.374-22.626 9.375c-5.999 6.001-9.374 14.138-9.374 22.625v64c0 8.487 3.375 16.624 9.374 22.625 6.003 6.001 14.14 9.375 22.626 9.375z" />
<glyph unicode="&#xe93c;" d="M900.16 646.080l-339.2 204.48c-14.818 8.786-31.731 13.423-48.96 13.423s-34.142-4.637-48.96-13.423l-339.2-204.48c-51.84-31.36-27.84-102.080 36.16-102.080h32v-384h128v384h128v-384h128v384h128v-384h128v384h32c64 0 88 70.72 36.16 102.080z" />
<glyph unicode="&#xe93d;" d="M928.009 64c8.482-0.004 16.627-3.375 22.626-9.374 5.999-6.003 9.374-14.144 9.374-22.626s-3.375-16.623-9.374-22.626c-5.999-5.999-14.144-9.37-22.626-9.374h-831.998c-8.484 0-16.624 3.379-22.625 9.374-6.001 6.003-9.375 14.14-9.375 22.626s3.374 16.623 9.375 22.626c6.001 5.995 14.141 9.374 22.625 9.374h831.998zM510.72 895.958c22.972 0 45.53-6.159 65.289-17.875l340.791-203.542c16.512-9.158 29.483-23.591 36.796-41 7.309-17.411 8.563-36.797 3.541-55-6.319-19.617-18.816-36.682-35.584-48.669-16.764-11.977-36.941-18.244-57.545-17.873v-352c0-8.482-3.375-16.623-9.374-22.626-5.999-5.999-14.144-9.37-22.626-9.374h-128c-8.482 0-16.623 3.379-22.622 9.374-6.003 6.003-9.378 14.14-9.378 22.626v352h-64v-352c0-8.482-3.375-16.623-9.374-22.626-5.999-5.999-14.144-9.37-22.626-9.374h-128c-8.482 0-16.623 3.379-22.623 9.374-6.001 6.003-9.375 14.14-9.375 22.626v352h-64v-352c0-8.482-3.378-16.623-9.375-22.626-5.998-5.999-14.143-9.37-22.625-9.374h-128c-8.484 0-16.624 3.379-22.625 9.374-6.001 6.003-9.375 14.14-9.375 22.626v352c-20.295-0.55-40.268 5.333-57 16.832-16.73 11.5-29.365 28.026-36.125 47.168-5.026 18.205-3.772 37.588 3.541 55 7.313 17.398 20.247 31.846 36.75 41l338.25 206.083c19.759 11.715 42.321 17.875 65.293 17.875zM512.009 831.917c-11.226 0-22.272-2.931-32-8.542l-339.54-204.833c-4.519-1.669-8.289-4.931-10.583-9.167-2.289-4.237-2.949-9.18-1.875-13.875 2.606-6.196 7.095-11.416 12.834-14.917 4.304-2.625 9.146-4.187 14.125-4.583h37.041c8.483-0.003 16.627-3.377 22.625-9.375 5.997-6 9.375-14.141 9.375-22.625v-352h64v352c0 8.487 3.374 16.624 9.375 22.625 6.001 5.997 14.141 9.375 22.625 9.375h127.998c8.482-0.003 16.627-3.377 22.626-9.375 5.999-6 9.374-14.141 9.374-22.625v-352h64v352c0 8.487 3.375 16.624 9.378 22.625 5.999 5.997 14.14 9.375 22.622 9.375h128c8.482-0.003 16.627-3.377 22.626-9.375 5.999-6 9.374-14.141 9.374-22.625v-352h64v352c0 8.487 3.375 16.624 9.378 22.625 5.999 5.997 14.14 9.375 22.622 9.375h32c6.549-0.317 13.039 1.386 18.586 4.875s9.907 8.589 12.459 14.625c1.114 4.622 0.508 9.521-1.668 13.75-2.172 4.222-5.807 7.509-10.206 9.292l-339.17 204.833c-9.724 5.615-20.77 8.539-32 8.542zM512.009 736c26.505-0.007 48-21.495 48-48s-21.495-47.993-48-48c-26.509 0-48 21.49-48 48s21.491 48 48 48z" />
<glyph unicode="&#xe93e;" d="M864 288c8.486 0 16.623-3.375 22.626-9.374 5.999-6.003 9.374-14.14 9.374-22.626v-224c0-8.486-3.375-16.623-9.374-22.626-6.003-5.999-14.14-9.374-22.626-9.374h-352c-8.486 0-16.623 3.375-22.626 9.374-5.999 6.003-9.374 14.14-9.374 22.626v224c0 8.486 3.375 16.623 9.374 22.626 6.003 5.999 14.14 9.374 22.626 9.374s16.623-3.375 22.626-9.374c5.999-6.003 9.374-14.14 9.374-22.626v-192h288v192c0 8.486 3.375 16.623 9.374 22.626 6.003 5.999 14.14 9.374 22.626 9.374zM380.5 640c8.48-0.005 16.628-3.378 22.625-9.375 5.995-6 9.375-14.143 9.375-22.625v-73.917c-0.085-35.302-12.65-69.435-35.417-96.417-22.767-26.978-54.298-45.103-89.083-51.123v-189.419c0-18.33 7.287-35.913 20.25-48.875s30.543-20.25 48.875-20.25h58.875c8.487 0 16.623-3.375 22.626-9.374 5.999-6.003 9.374-14.14 9.374-22.626s-3.375-16.623-9.374-22.626c-6.003-5.999-14.139-9.374-22.626-9.374h-58.875c-35.28 0.085-69.095 14.135-94.042 39.083s-38.999 58.765-39.084 94.042v189.419c-34.785 6.020-66.317 24.145-89.083 51.123-22.767 26.982-35.332 61.116-35.417 96.417v73.917c0 8.482 3.38 16.625 9.375 22.625 5.996 5.997 14.145 9.37 22.625 9.375h249zM832 608c8.486 0 16.623-3.374 22.626-9.375 5.999-6.001 9.374-14.138 9.374-22.625v-120.333l85.751-80.29c6.174-5.786 9.822-13.798 10.125-22.251 0.299-8.448-2.756-16.674-8.499-22.878-2.982-3.213-6.613-5.777-10.628-7.539-4.019-1.762-8.363-2.697-12.749-2.709-8.077 0.030-15.851 3.106-21.751 8.623l-217.626 203.546-218.871-203.546c-6.298-5.099-14.293-7.603-22.374-7.040s-15.646 4.164-21.169 10.082c-5.526 5.935-8.593 13.769-8.583 21.875 0.012 8.107 3.088 15.919 8.625 21.837l240.626 223.998c5.914 5.482 13.687 8.538 21.747 8.542 8.073 0 15.876-3.054 21.794-8.542l89.583-83.876v60.501c0 8.487 3.375 16.624 9.374 22.625 6.003 6.001 14.14 9.375 22.626 9.375zM163.5 576v-41.917c0.084-22.804 9.208-44.667 25.333-60.791 16.12-16.115 37.957-25.203 60.75-25.293h12.833c22.793 0.090 44.63 9.178 60.75 25.293 16.125 16.124 25.249 37.986 25.333 60.791v41.917h-185zM416 736c8.487 0 16.623-3.374 22.626-9.375 5.999-6.001 9.374-14.138 9.374-22.625s-3.375-16.624-9.374-22.625c-6.003-6.001-14.139-9.375-22.626-9.375h-320c-8.487 0-16.624 3.374-22.625 9.375s-9.375 14.138-9.375 22.625c0 8.487 3.374 16.624 9.375 22.625s14.138 9.375 22.625 9.375h320zM160 896c8.487 0 16.624-3.374 22.625-9.375s9.375-14.138 9.375-22.625v-64c0-8.487-3.374-16.624-9.375-22.625s-14.138-9.375-22.625-9.375c-8.487 0-16.624 3.374-22.625 9.375s-9.375 14.138-9.375 22.625v64c0 8.487 3.374 16.624 9.375 22.625s14.138 9.375 22.625 9.375zM352 896c8.487 0 16.624-3.374 22.625-9.375s9.375-14.138 9.375-22.625v-64c0-8.487-3.374-16.624-9.375-22.625s-14.138-9.375-22.625-9.375c-8.487 0-16.624 3.374-22.625 9.375s-9.375 14.138-9.375 22.625v64c0 8.487 3.374 16.624 9.375 22.625s14.138 9.375 22.625 9.375z" />
<glyph unicode="&#xe93f;" d="M866.876 409.293l-2.876-377.293h-352v384l174.707 160 180.169-166.707zM380.5 534.083c0-31.312-12.445-61.358-34.583-83.502-22.141-22.14-52.189-34.577-83.5-34.581h-12.833c-15.5 0.004-30.846 3.068-45.167 8.998-14.321 5.935-27.33 14.626-38.292 25.583-22.144 22.148-34.625 52.186-34.625 83.502v73.917h249v-73.917z" />
<glyph unicode="&#xe940;" d="M512.009 896c118.818-0.002 232.781-47.194 316.791-131.209 84.015-84.016 131.209-197.976 131.209-316.791 0-88.597-26.278-175.206-75.499-248.875-49.225-73.673-119.223-131.136-201.084-165.043-81.856-33.899-171.938-42.743-258.832-25.459-86.897 17.289-166.725 59.938-229.375 122.586-62.651 62.652-105.337 142.477-122.625 229.376-17.286 86.903-8.408 177.012 25.5 258.874 33.907 81.854 91.334 151.817 165 201.042 73.673 49.227 160.311 75.5 248.915 75.5zM374.719 256c30.080-118.4 85.77-192 137.29-192 51.52 0.009 107.217 73.604 137.293 192h-274.583zM179.844 256c44.239-76.45 113.363-135.415 195.833-167.040-32.401 51.183-55.37 107.759-67.833 167.040h-128zM714.884 256c-12.463-59.281-35.43-115.857-67.831-167.040 82.47 31.625 151.595 90.59 195.831 167.040h-128zM140.469 544c-8.084-31.364-12.255-63.612-12.459-96 0.042-44.318 7.841-88.286 23.042-129.916 2.86 1.122 5.89 1.771 8.958 1.916h136.959c-6.006 42.402-8.999 85.175-8.959 128 0.050 32.068 1.764 64.111 5.125 96h-152.666zM730.884 544c3.362-31.889 5.077-63.932 5.124-96 0.043-42.825-2.948-85.598-8.956-128h136.956c3.072-0.145 6.101-0.794 8.96-1.916 15.198 41.63 23.002 85.598 23.040 129.916-0.201 32.393-4.412 64.631-12.497 96h-152.627zM357.427 544c-8.451-74.526-7.046-149.841 4.166-224h300.794c6.46 42.359 9.694 85.15 9.621 128 0.034 32.077-1.801 64.132-5.457 96h-309.124zM376.969 807.042c-94.569-35.671-171.279-107.191-213.458-199.042h138.875c11.45 70.623 36.816 138.276 74.583 199.042zM512.009 832c-56 0-116.825-86.72-144.665-224h289.292c-27.84 137.273-88.627 223.993-144.627 224zM647.053 807.042c37.764-60.764 63.091-128.42 74.543-199.042h138.871c-42.176 91.846-118.852 163.37-213.414 199.042z" />
<glyph unicode="&#xe941;" d="M512 864c229.751 0 416-186.249 416-416s-186.249-416-416-416c-229.751 0-416 186.249-416 416s186.249 416 416 416z" />
<glyph unicode="&#xe942;" d="M855.377 768c27.721-0.088 54.272-11.148 73.873-30.75s30.66-46.154 30.75-73.875v-430.752c-0.090-27.721-11.149-54.272-30.75-73.873s-46.153-30.66-73.873-30.75h-686.752c-27.721 0.090-54.273 11.149-73.875 30.75s-30.662 46.153-30.75 73.873v430.752c0.088 27.721 11.148 54.273 30.75 73.875s46.154 30.662 73.875 30.75h686.752zM128 232.623c0-5.406 1.071-10.765 3.167-15.748 2.102-4.992 5.207-9.545 9.083-13.333 3.871-3.776 8.467-6.724 13.5-8.708 5.037-1.984 10.422-2.957 15.833-2.833h22.417c0.025 20.817-6.016 41.182-17.375 58.624-11.365 17.446-27.569 31.236-46.625 39.625v-57.626zM256 704c-4.8-85.119-59.201-154.219-128-163.5v-185.001c69.119-9.28 123.52-78.379 128-163.499h512c4.8 85.12 59.2 154.219 128 163.499v185.001c-69.12 9.281-123.52 78.381-128 163.5h-512zM896 290.249c-19.055-8.388-35.26-22.178-46.626-39.625-11.358-17.442-17.399-37.807-17.374-58.624h23.377c10.769 0.004 21.090 4.301 28.706 11.917s11.913 17.937 11.917 28.706v57.626zM512 622.417c79.36 0 144-78.417 144-174.417s-64-174.417-144-174.417c-80 0-144 78.417-144 174.417s64.64 174.417 144 174.417zM512 558.417c-43.52 0-80-50.577-80-110.417s36.48-110.417 80-110.417c43.52 0 80 50.577 80 110.417s-36.48 110.417-80 110.417zM168.625 704c-10.773-0.004-21.091-4.299-28.708-11.917s-11.913-17.935-11.917-28.708v-57.625c19.056 8.39 35.26 22.179 46.625 39.625 11.359 17.442 17.4 37.81 17.375 58.625h-23.375zM832 704c-0.026-20.815 6.016-41.183 17.374-58.625 11.366-17.446 27.571-31.235 46.626-39.625v57.625c0 5.408-1.071 10.765-3.166 15.75-2.103 4.995-5.21 9.547-9.084 13.333-3.87 3.778-8.469 6.726-13.5 8.708-5.039 1.983-10.423 2.959-15.834 2.833h-22.417z" />
<glyph unicode="&#xe943;" d="M801.583 736c-1.6-6.719-1.583-13.461-1.583-20.5 0.009-79.991 50.244-144 112-144 5.914 0.042 11.802 0.726 17.583 1.958v-250.915c-5.257 1.131-10.624 1.813-16 1.958-61.747-0.013-111.991-64.337-112-144 0-7.040 1.626-13.781 1.626-20.501h-579.209v20.501c-0.009 79.987-50.245 144-112 144-5.381-0.145-10.737-0.828-16-1.958v250.915c5.263-1.132 10.619-1.812 16-1.958 61.755 0 111.991 64.329 112 144v20.5h577.583zM512 590.417c-61.76 0-112-64.017-112-142.417s50.24-142.417 112-142.417c61.76 0 112 64.017 112 142.417s-50.24 142.417-112 142.417z" />
</font>
</defs>
</svg>
