<svg width="49" height="19" viewBox="0 0 49 19" fill="none" xmlns="http://www.w3.org/2000/svg">
<path d="M3.88281 18.5695H0.929688V0.991379H4.29297V8.18669C4.78516 7.6945 5.35547 7.31169 6.00391 7.03825C6.66016 6.757 7.37109 6.61638 8.13672 6.61638C9.21484 6.61638 10.1719 6.882 11.0078 7.41325C11.8438 7.93669 12.5039 8.65935 12.9883 9.58122C13.4727 10.4953 13.7148 11.5383 13.7148 12.7101C13.7148 13.8742 13.4727 14.9172 12.9883 15.839C12.5039 16.7609 11.8438 17.4875 11.0078 18.0187C10.1719 18.5422 9.21484 18.8039 8.13672 18.8039C7.30859 18.8039 6.54297 18.6437 5.83984 18.3234C5.14453 17.9953 4.54688 17.5461 4.04688 16.9758L3.88281 18.5695ZM7.28125 15.7922C7.85156 15.7922 8.35938 15.6593 8.80469 15.3937C9.25781 15.1281 9.61328 14.7609 9.87109 14.2922C10.1367 13.8234 10.2695 13.2922 10.2695 12.6984C10.2695 12.1125 10.1367 11.589 9.87109 11.1281C9.61328 10.6593 9.25781 10.2922 8.80469 10.0265C8.35938 9.76091 7.85156 9.6281 7.28125 9.6281C6.74219 9.6281 6.25 9.74919 5.80469 9.99138C5.36719 10.2336 5.01562 10.5656 4.75 10.9875C4.48438 11.4093 4.33203 11.8937 4.29297 12.4406V12.9562C4.33203 13.5031 4.48438 13.9914 4.75 14.4211C5.01562 14.8429 5.36719 15.1789 5.80469 15.4289C6.24219 15.6711 6.73438 15.7922 7.28125 15.7922ZM21.4258 18.8039C20.2227 18.8039 19.1445 18.5422 18.1914 18.0187C17.2383 17.4875 16.4883 16.7648 15.9414 15.8508C15.4023 14.9289 15.1328 13.882 15.1328 12.7101C15.1328 11.5461 15.4023 10.507 15.9414 9.59294C16.4883 8.67107 17.2383 7.9445 18.1914 7.41325C19.1445 6.882 20.2227 6.61638 21.4258 6.61638C22.6289 6.61638 23.6992 6.882 24.6367 7.41325C25.582 7.9445 26.3242 8.67107 26.8633 9.59294C27.4102 10.507 27.6836 11.5461 27.6836 12.7101C27.6836 13.882 27.4102 14.9289 26.8633 15.8508C26.3242 16.7648 25.582 17.4875 24.6367 18.0187C23.6992 18.5422 22.6289 18.8039 21.4258 18.8039ZM21.4141 15.7922C21.9531 15.7922 22.4336 15.6593 22.8555 15.3937C23.2852 15.1203 23.6211 14.7531 23.8633 14.2922C24.1133 13.8234 24.2383 13.2883 24.2383 12.6867C24.2383 12.1086 24.1133 11.589 23.8633 11.1281C23.6211 10.6672 23.2852 10.3039 22.8555 10.0383C22.4336 9.76482 21.9531 9.6281 21.4141 9.6281C20.8672 9.6281 20.3789 9.76482 19.9492 10.0383C19.5273 10.3039 19.1914 10.6672 18.9414 11.1281C18.6992 11.589 18.5781 12.1086 18.5781 12.6867C18.5781 13.2883 18.6992 13.8234 18.9414 14.2922C19.1914 14.7531 19.5273 15.1203 19.9492 15.3937C20.3789 15.6593 20.8672 15.7922 21.4141 15.7922ZM33.4258 18.5695H29.8281V0.522629H33.4258V18.5695ZM48.3672 18.5695H45.4141L45.2383 16.9758C44.7383 17.5383 44.1367 17.9836 43.4336 18.3117C42.7383 18.6398 41.9766 18.8039 41.1484 18.8039C40.0781 18.8039 39.1211 18.5422 38.2773 18.0187C37.4414 17.4875 36.7812 16.7609 36.2969 15.839C35.8125 14.9172 35.5703 13.8742 35.5703 12.7101C35.5703 11.5383 35.8125 10.4953 36.2969 9.58122C36.7812 8.65935 37.4414 7.93669 38.2773 7.41325C39.1211 6.882 40.0781 6.61638 41.1484 6.61638C41.9141 6.61638 42.625 6.757 43.2812 7.03825C43.9453 7.31169 44.5195 7.6945 45.0039 8.18669V0.991379H48.3672V18.5695ZM42.0156 15.7922C42.5703 15.7922 43.0703 15.6672 43.5156 15.4172C43.9688 15.1672 44.3281 14.8273 44.5938 14.3976C44.8672 13.9601 45.0039 13.464 45.0039 12.9093V12.4875C45.0039 11.9328 44.8672 11.4406 44.5938 11.0109C44.3281 10.5812 43.9688 10.2453 43.5156 10.0031C43.0703 9.7531 42.5703 9.6281 42.0156 9.6281C41.4453 9.6281 40.9336 9.76091 40.4805 10.0265C40.0273 10.2922 39.668 10.6593 39.4023 11.1281C39.1445 11.589 39.0156 12.1164 39.0156 12.7101C39.0156 13.2961 39.1445 13.8234 39.4023 14.2922C39.668 14.7531 40.0273 15.1203 40.4805 15.3937C40.9336 15.6593 41.4453 15.7922 42.0156 15.7922Z" fill="white"/>
</svg>
