<svg width="51" height="20" viewBox="0 0 51 20" fill="none" xmlns="http://www.w3.org/2000/svg">
<path d="M4.38281 19H1.42969V1.42188H4.79297V8.61719C5.28516 8.125 5.85547 7.74219 6.50391 7.46875C7.16016 7.1875 7.87109 7.04688 8.63672 7.04688C9.71484 7.04688 10.6719 7.3125 11.5078 7.84375C12.3438 8.36719 13.0039 9.08984 13.4883 10.0117C13.9727 10.9258 14.2148 11.9688 14.2148 13.1406C14.2148 14.3047 13.9727 15.3477 13.4883 16.2695C13.0039 17.1914 12.3438 17.918 11.5078 18.4492C10.6719 18.9727 9.71484 19.2344 8.63672 19.2344C7.80859 19.2344 7.04297 19.0742 6.33984 18.7539C5.64453 18.4258 5.04688 17.9766 4.54688 17.4062L4.38281 19ZM7.78125 16.2227C8.35156 16.2227 8.85938 16.0898 9.30469 15.8242C9.75781 15.5586 10.1133 15.1914 10.3711 14.7227C10.6367 14.2539 10.7695 13.7227 10.7695 13.1289C10.7695 12.543 10.6367 12.0195 10.3711 11.5586C10.1133 11.0898 9.75781 10.7227 9.30469 10.457C8.85938 10.1914 8.35156 10.0586 7.78125 10.0586C7.24219 10.0586 6.75 10.1797 6.30469 10.4219C5.86719 10.6641 5.51562 10.9961 5.25 11.418C4.98438 11.8398 4.83203 12.3242 4.79297 12.8711V13.3867C4.83203 13.9336 4.98438 14.4219 5.25 14.8516C5.51562 15.2734 5.86719 15.6094 6.30469 15.8594C6.74219 16.1016 7.23438 16.2227 7.78125 16.2227ZM21.9258 19.2344C20.7227 19.2344 19.6445 18.9727 18.6914 18.4492C17.7383 17.918 16.9883 17.1953 16.4414 16.2812C15.9023 15.3594 15.6328 14.3125 15.6328 13.1406C15.6328 11.9766 15.9023 10.9375 16.4414 10.0234C16.9883 9.10156 17.7383 8.375 18.6914 7.84375C19.6445 7.3125 20.7227 7.04688 21.9258 7.04688C23.1289 7.04688 24.1992 7.3125 25.1367 7.84375C26.082 8.375 26.8242 9.10156 27.3633 10.0234C27.9102 10.9375 28.1836 11.9766 28.1836 13.1406C28.1836 14.3125 27.9102 15.3594 27.3633 16.2812C26.8242 17.1953 26.082 17.918 25.1367 18.4492C24.1992 18.9727 23.1289 19.2344 21.9258 19.2344ZM21.9141 16.2227C22.4531 16.2227 22.9336 16.0898 23.3555 15.8242C23.7852 15.5508 24.1211 15.1836 24.3633 14.7227C24.6133 14.2539 24.7383 13.7188 24.7383 13.1172C24.7383 12.5391 24.6133 12.0195 24.3633 11.5586C24.1211 11.0977 23.7852 10.7344 23.3555 10.4688C22.9336 10.1953 22.4531 10.0586 21.9141 10.0586C21.3672 10.0586 20.8789 10.1953 20.4492 10.4688C20.0273 10.7344 19.6914 11.0977 19.4414 11.5586C19.1992 12.0195 19.0781 12.5391 19.0781 13.1172C19.0781 13.7188 19.1992 14.2539 19.4414 14.7227C19.6914 15.1836 20.0273 15.5508 20.4492 15.8242C20.8789 16.0898 21.3672 16.2227 21.9141 16.2227ZM33.9258 19H30.3281V0.953125H33.9258V19ZM48.8672 19H45.9141L45.7383 17.4062C45.2383 17.9688 44.6367 18.4141 43.9336 18.7422C43.2383 19.0703 42.4766 19.2344 41.6484 19.2344C40.5781 19.2344 39.6211 18.9727 38.7773 18.4492C37.9414 17.918 37.2812 17.1914 36.7969 16.2695C36.3125 15.3477 36.0703 14.3047 36.0703 13.1406C36.0703 11.9688 36.3125 10.9258 36.7969 10.0117C37.2812 9.08984 37.9414 8.36719 38.7773 7.84375C39.6211 7.3125 40.5781 7.04688 41.6484 7.04688C42.4141 7.04688 43.125 7.1875 43.7812 7.46875C44.4453 7.74219 45.0195 8.125 45.5039 8.61719V1.42188H48.8672V19ZM42.5156 16.2227C43.0703 16.2227 43.5703 16.0977 44.0156 15.8477C44.4688 15.5977 44.8281 15.2578 45.0938 14.8281C45.3672 14.3906 45.5039 13.8945 45.5039 13.3398V12.918C45.5039 12.3633 45.3672 11.8711 45.0938 11.4414C44.8281 11.0117 44.4688 10.6758 44.0156 10.4336C43.5703 10.1836 43.0703 10.0586 42.5156 10.0586C41.9453 10.0586 41.4336 10.1914 40.9805 10.457C40.5273 10.7227 40.168 11.0898 39.9023 11.5586C39.6445 12.0195 39.5156 12.5469 39.5156 13.1406C39.5156 13.7266 39.6445 14.2539 39.9023 14.7227C40.168 15.1836 40.5273 15.5508 40.9805 15.8242C41.4336 16.0898 41.9453 16.2227 42.5156 16.2227Z" fill="#181C32"/>
</svg>
